<?xml version="1.0" standalone="no"?>
<!DOCTYPE svg PUBLIC "-//W3C//DTD SVG 1.1//EN" "http://www.w3.org/Graphics/SVG/1.1/DTD/svg11.dtd" >
<svg xmlns="http://www.w3.org/2000/svg">
<metadata></metadata>
<defs>
<font id="actabook_italic" horiz-adv-x="1265" >
<font-face units-per-em="2048" ascent="1638" descent="-410" />
<missing-glyph horiz-adv-x="471" />
<glyph unicode="&#xfb01;" horiz-adv-x="1259" d="M-59 -356q0 37 25 63.5t65 26.5q31 0 73 -16.5t54 -16.5q26 0 39.5 45t29.5 168l146 1034h-176l8 60l178 16l10 72q11 75 47.5 144t96.5 127t152.5 93t203.5 35q149 0 244.5 -63.5t95.5 -147.5q0 -53 -35 -87t-90 -34q-43 0 -67.5 18.5t-24.5 45.5q0 24 20.5 50t20.5 48 q0 42 -38 77.5t-120 35.5q-71 0 -126.5 -20t-90.5 -51t-60 -77.5t-38 -91t-21 -100.5l-10 -74h496l131 20h24l-125 -888q-6 -33 9.5 -49.5t46.5 -16.5q51 0 127 45l4 -41q-172 -114 -273 -114q-110 0 -92 126l107 758q2 18 2 29t-2 21t-10.5 15t-19 9.5t-31 6t-43.5 2.5 t-60 1h-301l-125 -887q-31 -226 -144.5 -358.5t-240.5 -132.5q-92 0 -92 74z" />
<glyph unicode="&#xfb02;" horiz-adv-x="1259" d="M-59 -356q0 37 25 63.5t65 26.5q31 0 73 -16.5t54 -16.5q26 0 39.5 45t29.5 168l146 1034h-176l8 60l178 16l10 72q11 75 47.5 144t96.5 127t152.5 93t203.5 35q146 0 240 -61l110 61h25l-189 -1339q-6 -33 9.5 -49.5t46.5 -16.5q51 0 127 45l4 -41q-172 -114 -273 -114 q-110 0 -92 126l176 1246q-60 86 -178 86q-71 0 -126.5 -20t-90.5 -51t-60 -77.5t-38 -91t-21 -100.5l-10 -74h244l-11 -76h-243l-125 -887q-31 -226 -144.5 -358.5t-240.5 -132.5q-92 0 -92 74z" />
<glyph horiz-adv-x="2048" />
<glyph horiz-adv-x="2048" />
<glyph unicode="&#xd;" horiz-adv-x="2048" />
<glyph unicode=" "  horiz-adv-x="471" />
<glyph unicode="&#x09;" horiz-adv-x="471" />
<glyph unicode="&#xa0;" horiz-adv-x="471" />
<glyph unicode="!" horiz-adv-x="630" d="M207 96q0 58 42 99t99 41q47 0 77 -31.5t30 -77.5q0 -57 -42.5 -97t-99.5 -40q-45 0 -75.5 30.5t-30.5 75.5zM344 344q6 84 23.5 356.5t29.5 436.5t19 229q7 129 110 129q84 0 84 -80q0 -40 -36.5 -213t-97 -444.5t-89.5 -413.5h-43z" />
<glyph unicode="&#x22;" horiz-adv-x="843" d="M401 1155l7 332q0 33 24 51t55 18t49.5 -18t10.5 -51l-86 -332h-60zM709 1155l6 332q0 33 24.5 51t55.5 18t49 -18t10 -51l-86 -332h-59z" />
<glyph unicode="#" horiz-adv-x="1146" d="M147 467l11 76h291l34 252h-290l12 75h291l41 293h73l-41 -293h254l41 293h74l-41 -293h293l-12 -75h-293l-35 -252h293l-10 -76h-293l-41 -291h-74l41 291h-254l-41 -291h-74l41 291h-291zM522 543h254l35 252h-254z" />
<glyph unicode="$" horiz-adv-x="1054" d="M131 78l29 336h47q12 -339 268 -359l105 566q-133 68 -178 100q-132 93 -141 226q-1 11 -1 22q0 161 126 269t329 114l35 184h65l-35 -186q167 -10 295 -84l-26 -314h-48q-26 300 -235 324l-90 -490l20 -10q138 -73 195 -121q117 -100 117 -243q0 -188 -136 -307 t-346 -125l-34 -185h-64l35 187q-184 9 -332 96zM442 1044q0 -73 45 -124t129 -101l86 459q-115 -6 -187.5 -67.5t-72.5 -166.5zM539 55q128 7 208 90t80 203q0 57 -27 103.5t-64.5 76.5t-96.5 62z" />
<glyph unicode="%" horiz-adv-x="1562" d="M285 1137q22 134 120.5 225.5t229.5 91.5q122 0 191.5 -89.5t52.5 -219.5q-19 -137 -119 -231.5t-234 -94.5q-125 0 -193 92.5t-48 225.5zM393 1063q0 -99 39.5 -154t110.5 -55q100 0 162.5 93.5t62.5 262.5q0 100 -38.5 154.5t-108.5 54.5q-99 0 -163.5 -93.5 t-64.5 -262.5zM418 0l837 1434h84l-835 -1434h-86zM883 289q19 137 118 231t232 94q122 0 192.5 -89.5t51.5 -219.5q-19 -137 -118 -231t-233 -94q-122 0 -191 89.5t-52 219.5zM993 223q0 -100 38.5 -154.5t109.5 -54.5q100 0 162.5 94t62.5 263q0 100 -37.5 154.5 t-107.5 54.5q-100 0 -164 -94t-64 -263z" />
<glyph unicode="&#x26;" horiz-adv-x="1511" d="M184 295q0 69 24.5 133.5t58 111t89 95.5t96 77.5t101.5 67.5q-62 95 -92.5 168t-30.5 150q0 105 58 187.5t150 125.5t198 43q126 0 202 -62t76 -171q0 -107 -94.5 -211.5t-284.5 -194.5l289 -405q15 26 46.5 80t47.5 82t45.5 74t50 71t50.5 56.5t56.5 47.5t60 27.5 t67.5 11.5q50 0 78 -23t28 -65q0 -46 -31.5 -78t-72.5 -32q-22 0 -56.5 15t-58.5 15q-26 0 -51.5 -16t-55.5 -55.5t-49.5 -69t-59 -97t-58.5 -98.5l139 -196q27 -36 48.5 -53t51.5 -17q49 0 125 45l5 -41q-54 -36 -86.5 -55t-83.5 -39t-93 -20q-24 0 -41 5.5t-35 24 t-24.5 27.5t-28.5 41l-86 125q-182 -223 -417 -223q-163 0 -257 84.5t-94 230.5zM362 342q0 -122 61.5 -199t182.5 -77q172 0 312 186l-334 481q-90 -60 -156 -171t-66 -220zM598 1141q0 -115 109 -279q163 88 231 173t68 179q0 72 -40.5 119t-129.5 47q-107 0 -172.5 -76 t-65.5 -163z" />
<glyph unicode="'" horiz-adv-x="536" d="M401 1155l7 332q0 33 24 51t55 18t49.5 -18t10.5 -51l-86 -332h-60z" />
<glyph unicode="(" horiz-adv-x="692" d="M299 696q-38 -270 36 -520t218 -422h63q-222 416 -147 942t414 942h-64q-194 -171 -338 -421t-182 -521z" />
<glyph unicode=")" horiz-adv-x="692" d="M6 -246q339 416 414 942q74 522 -150 942h64q146 -172 220 -421.5t36 -520.5t-182 -520.5t-338 -421.5h-64z" />
<glyph unicode="*" horiz-adv-x="905" d="M328 1163q3 22 19.5 38t37.5 16q6 0 22 -6t56.5 -13.5t101.5 -11.5q-41 45 -71 68.5t-44.5 31t-19.5 12.5q-13 15 -10 35t20 35q15 15 37.5 17t34.5 -13q3 -4 8.5 -23.5t24.5 -55t55 -76.5q6 73 5.5 103t-4 54t-3.5 27q0 23 17 38t42 15q19 0 32 -11.5t13 -29.5 q0 -10 -6.5 -22.5t-20 -55.5t-26.5 -118q46 41 74 76.5t39.5 55t15.5 23.5q18 15 39 13t33 -17q14 -15 12 -35t-20 -35q-6 -4 -24.5 -12t-53 -31.5t-88.5 -68.5q61 4 103 11.5t59.5 13.5t23.5 6q21 0 33.5 -16t9.5 -38t-19 -36.5t-38 -14.5q-6 0 -22 6t-56.5 13.5 t-101.5 11.5q41 -45 71 -69t44.5 -31.5t19.5 -12.5q13 -15 10 -36t-20 -36q-15 -15 -37.5 -16t-34.5 14q-3 4 -8.5 23.5t-24.5 55t-55 77.5q-6 -60 -6 -100.5t3 -61.5t3 -22q0 -23 -16.5 -38.5t-41.5 -15.5q-20 0 -32.5 10.5t-12.5 30.5q0 9 7 22t20.5 56.5t26.5 118.5 q-46 -42 -74.5 -77.5t-39.5 -55t-15 -23.5q-17 -15 -38.5 -14t-33.5 16q-14 15 -12 36t20 36q6 4 24.5 12.5t53 32t88.5 68.5q-61 -4 -103 -11.5t-59.5 -13.5t-23.5 -6q-22 0 -34 14.5t-9 36.5z" />
<glyph unicode="+" horiz-adv-x="1146" d="M293 627l10 73h332l47 334h74l-47 -334h333l-10 -73h-334l-47 -332h-73l47 332h-332z" />
<glyph unicode="," horiz-adv-x="602" d="M139 -242q88 37 142.5 94t54.5 103q0 37 -51 37q-48 0 -75.5 30.5t-27.5 75.5q0 59 44 98.5t98 39.5q63 0 91.5 -41.5t28.5 -102.5q0 -138 -81 -234.5t-209 -148.5z" />
<glyph unicode="-" horiz-adv-x="903" d="M195 510l10 76h659l-10 -76h-659z" />
<glyph unicode="." horiz-adv-x="579" d="M182 96q0 58 42 99t100 41q47 0 76.5 -31.5t29.5 -77.5q0 -57 -42 -97t-99 -40q-45 0 -76 31t-31 75z" />
<glyph unicode="/" horiz-adv-x="845" d="M133 -20l701 1474h81l-698 -1474h-84z" />
<glyph unicode="0" horiz-adv-x="1216" d="M206 460.5q5 -99.5 36.5 -187t79.5 -153t121.5 -103t162.5 -37.5q111 0 213 58t177 154t126.5 219t69.5 255q12 106 7 205.5t-36.5 187t-79.5 153t-121.5 103t-162.5 37.5q-111 0 -213 -58t-177 -154t-126.5 -219t-69.5 -255q-12 -106 -7 -205.5zM399 666q42 300 143 456 t246 156t202.5 -156t15.5 -456t-143.5 -456.5t-246.5 -156.5t-202 156t-15 457z" />
<glyph unicode="1" horiz-adv-x="862" d="M76 0l8 49q155 10 197 21q72 21 79 75l152 1069l-276 -90l-17 52l428 176h58l-170 -1207q-3 -29 10 -47t46 -27t71.5 -13t99.5 -8q14 -1 22 -1l-8 -49h-700z" />
<glyph unicode="2" horiz-adv-x="1048" d="M98 0l13 90q121 85 207 149.5t172 135t143 128.5t108 122.5t79.5 126t44.5 130t16 142.5q0 108 -52 181t-159 73q-109 0 -170.5 -43.5t-67.5 -91.5q-4 -25 15.5 -52.5t19.5 -48.5q0 -36 -30 -55.5t-66 -19.5q-84 0 -84 71q0 83 58.5 155.5t158.5 115.5t217 43 q148 0 245 -83.5t97 -240.5q0 -112 -42 -212.5t-138 -206.5t-235 -213.5t-351 -245.5h670l-21 -150h-848z" />
<glyph unicode="3" horiz-adv-x="1085" d="M135 252q0 -116 105 -194t260 -78q99 0 190.5 29t164.5 83t117 138t44 186q0 114 -74.5 191.5t-200.5 99.5l2 4q120 38 204.5 124.5t101.5 196.5q19 144 -64 232t-258 88q-117 0 -217 -43t-158.5 -115.5t-58.5 -155.5q0 -71 84 -71q35 0 65.5 19.5t30.5 55.5 q0 22 -18.5 47.5t-18.5 45.5q0 48 61.5 95.5t176.5 47.5q119 0 167 -68t33 -180q-11 -71 -38.5 -125t-63 -85.5t-82 -50.5t-90.5 -25t-92 -3l-10 -82q39 0 70.5 -1.5t64 -6.5t57.5 -12.5t48.5 -20t40 -29.5t29 -40.5t18.5 -53.5t6 -68t-7 -83q-18 -131 -119.5 -212 t-234.5 -79q-105 1 -162 42t-57 87q0 20 11 35.5t24 24t24 24.5t11 37q0 30 -24 46t-54 16q-109 0 -109 -113z" />
<glyph unicode="4" horiz-adv-x="1118" d="M111 375l8 53l807 924h118l-126 -901h202l-10 -76h-203l-53 -375h-174l53 375h-622zM221 451h522l99 698z" />
<glyph unicode="5" horiz-adv-x="1087" d="M129 217q0 65 37 106.5t80 41.5q31 0 53.5 -17t22.5 -45q0 -21 -11 -36t-24 -22.5t-24 -25.5t-11 -43q0 -44 36 -73t79.5 -39.5t89.5 -10.5q109 0 197 50t135 130t47 170q0 50 -14 94t-49 86.5t-89.5 72.5t-141 48.5t-196.5 18.5h-31l105 608h684l-21 -149h-606l-53 -324 q135 0 241 -24.5t172 -63.5t108.5 -93t59.5 -108.5t17 -113.5q0 -208 -151 -341.5t-406 -133.5q-158 0 -247 68.5t-89 168.5z" />
<glyph unicode="6" horiz-adv-x="1157" d="M184 430q0 231 113 433t307 335t432 174l15 -59q-490 -134 -639 -602q171 127 366 127q152 0 240 -97t88 -247q0 -114 -43.5 -212t-116 -163t-167 -102t-195.5 -37q-193 0 -296.5 126t-103.5 324zM374 343q8 -128 67 -209t153 -81q138 0 229.5 117t91.5 301 q0 126 -58.5 201.5t-162.5 75.5q-71 0 -153 -34t-138 -85q-37 -158 -29 -286z" />
<glyph unicode="7" horiz-adv-x="995" d="M213 0l784 1182h-512q-41 0 -66 -2t-47.5 -10t-35 -18.5t-25.5 -33.5t-22 -49t-21 -70h-51l55 332h852l-8 -59l-688 -1272h-215z" />
<glyph unicode="8" horiz-adv-x="1118" d="M141 279q0 120 90.5 229.5t270.5 173.5q-102 59 -158.5 126t-56.5 161q0 71 29 134t77.5 107.5t111 77t130.5 48.5t135 16q96 0 175.5 -33.5t129 -101.5t49.5 -158q0 -100 -80 -192.5t-229 -157.5q50 -26 86 -48t73.5 -54.5t59 -66t32 -79.5t3.5 -99 q-13 -95 -65.5 -170.5t-127.5 -120.5t-160.5 -68t-172.5 -23q-186 0 -294 87t-108 212zM317 307q0 -124 68.5 -189t189.5 -65q126 0 212 72.5t102 177.5q5 33 -1.5 64t-16.5 54.5t-36 50t-43.5 42t-57.5 40t-59.5 35.5t-67.5 36q-35 18 -52 28q-112 -59 -175 -153t-63 -193z M471 1049q-8 -57 9 -103t67 -85t87.5 -61t115.5 -60q7 -3 10 -5q201 112 201 326q0 105 -60 161t-156 56q-103 0 -181.5 -66.5t-92.5 -162.5z" />
<glyph unicode="9" horiz-adv-x="1157" d="M240 838q0 114 43.5 212t116 163t167 102t195.5 37q130 0 221.5 -61t134.5 -161t43 -229q0 -231 -113 -433t-306.5 -335t-430.5 -174l-16 59q490 134 639 603q-171 -127 -367 -127q-152 0 -239.5 97t-87.5 247zM430 860q0 -126 59 -201t162 -75q71 0 153.5 33.5 t139.5 84.5q37 158 28.5 286t-67.5 209t-153 81q-137 0 -229.5 -117t-92.5 -301z" />
<glyph unicode=":" horiz-adv-x="579" d="M182 96q0 58 42 99t100 41q47 0 76.5 -31.5t29.5 -77.5q0 -57 -42 -97t-99 -40q-45 0 -76 31t-31 75zM264 678q0 56 41.5 96.5t97.5 40.5q47 0 78 -30.5t31 -75.5q0 -58 -42.5 -99t-98.5 -41q-47 0 -77 31.5t-30 77.5z" />
<glyph unicode=";" horiz-adv-x="602" d="M139 -242q88 37 142.5 94t54.5 103q0 37 -51 37q-48 0 -75.5 30.5t-27.5 75.5q0 59 44 98.5t98 39.5q63 0 91.5 -41.5t28.5 -102.5q0 -138 -81 -234.5t-209 -148.5zM272 678q0 56 43 96.5t101 40.5q45 0 75.5 -30.5t30.5 -75.5q0 -58 -42.5 -99t-98.5 -41q-47 0 -78 31.5 t-31 77.5z" />
<glyph unicode="&#x3c;" horiz-adv-x="983" d="M293 643l524 -381l12 92l-428 312l514 305l15 94l-631 -379z" />
<glyph unicode="=" horiz-adv-x="1146" d="M272 487l11 74h739l-10 -74h-740zM313 774l11 74h739l-10 -74h-740z" />
<glyph unicode="&#x3e;" horiz-adv-x="983" d="M240 262l14 92l514 312l-428 305l12 94l525 -379l-9 -43z" />
<glyph unicode="?" horiz-adv-x="1005" d="M244 1182q0 83 58.5 155t158 115t215.5 43q149 0 246.5 -83.5t97.5 -240.5q0 -83 -37 -159t-80 -123.5t-121 -98.5t-113.5 -69t-103.5 -49q-5 -3 -8 -4l-61 -324h-43l28 344q121 76 168 115q189 155 189 364q0 109 -52.5 181.5t-160.5 72.5q-109 0 -169.5 -43.5 t-68.5 -91.5q-3 -25 17 -52t20 -48q0 -36 -30.5 -56t-65.5 -20q-84 0 -84 72zM324 96q0 58 42.5 99t98.5 41q47 0 76.5 -31.5t29.5 -77.5q0 -57 -42 -97t-99 -40q-45 0 -75.5 30.5t-30.5 75.5z" />
<glyph unicode="@" horiz-adv-x="1761" d="M190 227q0 154 54 296t147 249.5t212 188t253.5 122t267.5 41.5q160 0 286 -55.5t203 -171t77 -276.5q0 -136 -47 -258t-121 -203t-163 -128.5t-175 -47.5q-82 0 -118.5 42.5t-31.5 108.5q-53 -76 -126 -115.5t-144 -39.5q-93 0 -143 64.5t-50 166.5q0 98 42 202 t109.5 187.5t161 137t189.5 53.5q125 0 199 -80l94 57h16l-172 -528q-13 -38 -18.5 -65t-4.5 -55.5t20 -43.5t55 -15q50 0 111 39t118 107t95 175t38 228q0 113 -40.5 200.5t-112 141t-162 80.5t-195.5 27q-146 0 -289 -67.5t-251.5 -178.5t-176 -265.5t-67.5 -318.5 q0 -241 141.5 -373t388.5 -132q127 0 262.5 41t243.5 120l14 -39q-124 -93 -276 -144.5t-309 -51.5q-187 0 -325 74.5t-209 204.5t-71 298zM731 205q0 -146 96 -146q64 0 136.5 60.5t105.5 156.5l131 392q-48 61 -131 61q-75 0 -141 -56t-107.5 -139t-65.5 -171t-24 -158z " />
<glyph unicode="A" horiz-adv-x="1419" d="M35 0l8 49q89 15 121.5 35t62.5 82l615 1278h98l293 -1282q9 -38 22 -58.5t46 -34.5t92 -20l-9 -49h-524l8 49q124 14 156 36q21 15 21 50q0 17 -5 39l-63 301h-518l-123 -258q-27 -58 -27 -92q-1 -21 9 -31q24 -30 151 -45l-8 -49h-426zM494 549h467l-144 672h-4z" />
<glyph unicode="B" d="M82 0l8 49q123 8 152.5 21.5t36.5 74.5l161 1143q2 15 2 25v19.5t-5.5 15.5t-9 11t-16 8.5t-21 6t-30 4.5t-37 3t-47.5 3l7 50h565q207 0 316.5 -83.5t109.5 -224.5q0 -134 -99.5 -235.5t-246.5 -140.5v-5q81 -17 142 -50.5t96.5 -77.5t53 -93t17.5 -104 q0 -186 -140 -303t-388 -117h-627zM442 70h240q72 0 129.5 14t95 36t65.5 55t43 64t23.5 70t10.5 66.5t2 60.5q0 123 -83.5 194.5t-262.5 71.5h-175zM543 776h157q192 0 291 93.5t99 248.5q0 110 -67 178t-210 68h-190z" />
<glyph unicode="C" horiz-adv-x="1320" d="M195 616q0 176 65.5 333t175.5 267t256.5 174t304.5 64q239 0 422 -123l-20 -284h-49q-6 70 -29.5 128.5t-65.5 105.5t-110.5 73t-157.5 26q-120 0 -230.5 -56.5t-194 -157t-133.5 -248.5t-50 -320q0 -248 117 -396.5t305 -148.5q335 0 463 334h49l-68 -285 q-211 -122 -454 -122q-262 0 -429 178t-167 458z" />
<glyph unicode="D" horiz-adv-x="1519" d="M82 0l8 49q123 8 152.5 21.5t36.5 74.5l161 1143q2 15 2 25v19.5t-5.5 15.5t-9 11t-16 8.5t-21 6t-30 4.5t-37 3t-47.5 3l7 50h641q266 0 435 -171.5t169 -447.5q0 -176 -66 -329.5t-176 -259t-257 -166t-306 -60.5h-641zM442 70h291q119 0 227.5 50t194.5 144t137 245 t51 337q0 245 -120.5 381.5t-309.5 136.5h-290z" />
<glyph unicode="E" horiz-adv-x="1226" d="M82 0l8 49q123 8 152.5 21.5t36.5 74.5l161 1143q2 15 2 25v19.5t-5.5 15.5t-9 11t-16 8.5t-21 6t-30 4.5t-37 3t-47.5 3l7 50h1030l-35 -334h-49q-13 140 -62 202t-166 62h-378l-82 -598h204q104 0 163.5 44t88.5 161h50l-68 -484h-49v14q0 106 -44 147q-47 44 -151 44 h-205l-88 -622h363q125 0 204 58.5t134 205.5h49l-68 -334h-1042z" />
<glyph unicode="F" horiz-adv-x="1177" d="M82 0l8 49q123 8 152.5 21.5t36.5 74.5l161 1143q2 15 2 25v19.5t-5.5 15.5t-9 11t-16 8.5t-21 6t-30 4.5t-37 3t-47.5 3l7 50h1030l-35 -334h-49q-13 140 -62 202t-166 62h-378l-88 -639h204q104 0 163.5 44t88.5 161h49l-67 -484h-49v14q0 106 -44 147q-47 44 -151 44 h-205l-71 -506q-2 -20 -1.5 -31.5t1.5 -22t11 -16.5t18 -10.5t31.5 -7t42.5 -4t60 -4.5l-8 -49h-526z" />
<glyph unicode="G" horiz-adv-x="1456" d="M195 614q0 177 65.5 334.5t175.5 267.5t256.5 174t304.5 64q239 0 422 -123l-20 -284h-49q-6 70 -29.5 128.5t-65.5 105.5t-110.5 73t-157.5 26q-120 0 -230.5 -57t-194 -157.5t-133.5 -249.5t-50 -322q0 -247 116 -394t302 -147t331 131l43 314q3 19 2.5 31t-1.5 22.5 t-11 16.5t-18 10.5t-31.5 7t-42 4t-59.5 4.5l8 49h493l-8 -49q-99 -8 -123.5 -21.5t-33.5 -74.5l-72 -508h-33l-49 123q-196 -133 -410 -133q-172 0 -306 80.5t-207.5 224.5t-73.5 329z" />
<glyph unicode="H" horiz-adv-x="1591" d="M82 0l8 49q123 8 152.5 21.5t36.5 74.5l161 1143q2 15 2 25v19.5t-5.5 15.5t-9 11t-16 8.5t-21 6t-30 4.5t-37 3t-47.5 3l7 50h526l-6 -50q-124 -8 -153 -21.5t-36 -74.5l-73 -522h727l73 522q2 19 1.5 31t-1.5 22.5t-11.5 16.5t-18.5 10.5t-31.5 7t-42 4t-59.5 4.5l6 50 h526l-6 -50q-124 -8 -152.5 -21.5t-35.5 -74.5l-162 -1143q-2 -19 -1.5 -31t1.5 -22.5t11 -16.5t18 -10.5t32 -7t43 -4t60 -4.5l-9 -49h-526l8 49q123 8 152.5 21.5t36.5 74.5l77 547h-727l-77 -547q-2 -20 -1.5 -31.5t1.5 -22t11 -16.5t18 -10.5t31.5 -7t42.5 -4t60 -4.5 l-8 -49h-526z" />
<glyph unicode="I" horiz-adv-x="690" d="M82 0l8 49q123 8 152.5 21.5t36.5 74.5l161 1143q2 15 2 25v19.5t-5.5 15.5t-9 11t-16 8.5t-21 6t-30 4.5t-37 3t-47.5 3l7 50h526l-6 -50q-124 -8 -153 -21.5t-36 -74.5l-161 -1143q-2 -20 -1.5 -31.5t1.5 -22t11 -16.5t18 -10.5t31.5 -7t42.5 -4t60 -4.5l-8 -49h-526z " />
<glyph unicode="J" horiz-adv-x="776" d="M29 53q0 38 25.5 59t70.5 21q25 0 68 -21.5t79 -21.5q65 0 96.5 82t57.5 270l119 846q3 19 2.5 31.5t-1.5 22.5t-11 16t-18 10.5t-32 7t-42.5 4t-59.5 4.5l6 50h526l-6 -50q-48 -3 -69.5 -4.5t-47.5 -6t-34.5 -9.5t-19 -16t-13.5 -24t-6 -36l-119 -846 q-14 -103 -59.5 -191t-108 -146.5t-137.5 -91.5t-150 -33q-116 0 -116 73z" />
<glyph unicode="K" horiz-adv-x="1468" d="M82 0l8 49q123 8 152.5 21.5t36.5 74.5l161 1143q2 15 2 25v19.5t-5.5 15.5t-9 11t-16 8.5t-21 6t-30 4.5t-37 3t-47.5 3l7 50h526l-6 -50q-124 -8 -153 -21.5t-36 -74.5l-75 -534q85 2 140.5 24t108.5 78l359 383q39 41 46 70.5t-28.5 49.5t-120.5 25l7 50h489l-6 -50 q-99 -9 -148 -29.5t-102 -76.5l-489 -514q42 -33 96 -103t94 -135l195 -299q54 -78 113 -123t147 -55l-8 -49h-314q-96 110 -205 297l-192 295q-38 57 -81.5 78.5t-109.5 23.5l-77 -549q-2 -20 -1.5 -31.5t1.5 -22t11 -16.5t18 -10.5t31.5 -7t42.5 -4t60 -4.5l-8 -49h-526z " />
<glyph unicode="L" horiz-adv-x="1161" d="M82 0l8 49q123 8 152.5 21.5t36.5 74.5l161 1143q2 15 2 25v19.5t-5.5 15.5t-9 11t-16 8.5t-21 6t-30 4.5t-37 3t-47.5 3l7 50h526l-6 -50q-124 -8 -153 -21.5t-36 -74.5l-172 -1218h342q125 0 204 58.5t134 205.5h49l-67 -334h-1022z" />
<glyph unicode="M" horiz-adv-x="1779" d="M70 0l8 49q132 8 163 21.5t38 74.5l161 1143q1 13 1 23q-1 39 -21 51q-26 14 -156 22l6 50h387l275 -1196l594 1196h372l-6 -50q-124 -8 -152.5 -21.5t-35.5 -74.5l-162 -1143q-2 -19 -1.5 -31t1.5 -22.5t11 -16.5t18 -10.5t32 -7t43 -4t60 -4.5l-8 -49h-527l9 49 q123 8 152 21.5t36 74.5l160 1108l-633 -1263h-94l-285 1255l-154 -1100q-1 -12 -1 -23q1 -42 23 -52q28 -13 171 -21l-8 -49h-477z" />
<glyph unicode="N" horiz-adv-x="1480" d="M70 0l8 49q132 8 163 21.5t38 74.5l161 1143q1 13 1 23q-1 39 -21 51q-26 14 -156 22l6 50h387l541 -1129l139 983q1 12 1 22q0 40 -22 52q-28 14 -171 22l6 50h477l-6 -50q-52 -3 -75 -4.5t-50.5 -6t-36.5 -9.5t-20 -16t-13.5 -24t-5.5 -36l-184 -1298h-94l-621 1294 l-160 -1139q-1 -12 -1 -23q1 -42 23 -52q28 -13 171 -21l-8 -49h-477z" />
<glyph unicode="O" horiz-adv-x="1593" d="M195 616q0 -279 168.5 -457.5t431.5 -178.5q159 0 306.5 64t258 173.5t176.5 266.5t66 333q0 279 -169 458t-432 179q-159 0 -306.5 -64t-257.5 -174t-176 -267t-66 -333zM379 586q0 187 51.5 340.5t138 251t195.5 150t227 52.5q189 0 307.5 -142t118.5 -390 q0 -150 -33.5 -280t-92 -223.5t-136.5 -160t-167 -99t-183 -32.5q-189 0 -307.5 142.5t-118.5 390.5z" />
<glyph unicode="P" horiz-adv-x="1228" d="M82 0l8 49q123 8 152.5 21.5t36.5 74.5l161 1143q2 15 2 25v19.5t-5.5 15.5t-9 11t-16 8.5t-21 6t-30 4.5t-37 3t-47.5 3l7 50h616q205 0 316.5 -93t111.5 -247q0 -68 -19.5 -133t-67 -129t-118 -111.5t-181.5 -77t-249 -29.5h-174l-65 -469q-2 -20 -1.5 -31.5t1.5 -22 t11 -16.5t18 -10.5t31.5 -7t42.5 -4t60 -4.5l-8 -49h-526zM528 688h170q123 0 211.5 31.5t137 88t70.5 124.5t22 153q0 55 -14.5 102t-46.5 88.5t-91 65t-141 23.5h-223z" />
<glyph unicode="Q" horiz-adv-x="1593" d="M195 616q0 176 66 333t176 267t257.5 174t306.5 64q263 0 432 -179t169 -458q0 -172 -63.5 -326.5t-170 -263.5t-248.5 -175t-297 -72q150 -121 263 -174.5t182 -53.5q53 0 87.5 19.5t74.5 62.5l34 -27q-55 -103 -113.5 -160t-142.5 -57q-207 0 -512 398 q-224 32 -362.5 204t-138.5 424zM379 586q0 -248 118.5 -390.5t307.5 -142.5q94 0 183 32.5t167 99t136.5 160t92 223.5t33.5 280q0 248 -118.5 390t-307.5 142q-118 0 -227 -52.5t-195.5 -150t-138 -251t-51.5 -340.5z" />
<glyph unicode="R" horiz-adv-x="1388" d="M82 0l8 49q123 8 152.5 21.5t36.5 74.5l161 1143q2 15 2 25v19.5t-5.5 15.5t-9 11t-16 8.5t-21 6t-30 4.5t-37 3t-47.5 3l7 50h596q205 0 316.5 -93t111.5 -247q0 -61 -16 -119t-53 -115t-91.5 -102t-137.5 -79t-186 -48q99 -66 174 -201l142 -254q40 -70 91 -93.5 t130 -33.5l-8 -49h-303q-32 40 -67.5 97.5t-55.5 103.5l-95 184q-43 85 -82 144.5t-85 93.5h-144l-67 -478q-2 -20 -1.5 -31.5t1.5 -22t11 -16.5t18 -10.5t31.5 -7t42.5 -4t60 -4.5l-8 -49h-526zM530 696h150q438 0 438 389q0 55 -14.5 102t-46.5 88.5t-91 65t-141 23.5 h-202z" />
<glyph unicode="S" horiz-adv-x="1101" d="M135 82l31 356h49q2 -95 23 -165.5t52 -111.5t75.5 -65.5t86.5 -32.5t93 -8q150 0 243 91t93 227q0 66 -33.5 119.5t-87 90t-118 70t-129.5 69.5t-118.5 77.5t-87 104t-33.5 140.5q0 174 136.5 292t359.5 118q208 0 365 -92l-27 -336h-49q-17 179 -90.5 265.5 t-204.5 86.5q-135 0 -221 -68.5t-86 -189.5q0 -62 33.5 -113.5t86.5 -88t117.5 -71.5t129 -73t117.5 -82.5t86.5 -111t33.5 -148.5q0 -133 -68 -236.5t-186.5 -159.5t-267.5 -56q-109 0 -217 27.5t-187 74.5z" />
<glyph unicode="T" horiz-adv-x="1189" d="M211 1100h49q53 142 116 203t179 61h145l-172 -1219q-7 -61 -35.5 -74.5t-152.5 -21.5l-8 -49h526l8 49q-32 2 -47.5 3t-37 3t-30 4.5t-21 6t-16 8.5t-9 11t-5.5 15.5v19.5t2 25l172 1219h146q115 0 161.5 -61.5t59.5 -202.5h49l35 334h-1059z" />
<glyph unicode="U" horiz-adv-x="1546" d="M260 1384l8 50h527l-9 -50q-124 -8 -152.5 -21.5t-35.5 -74.5l-100 -715q-10 -71 -10 -132q0 -145 57 -235q81 -126 282 -126q198 0 320 128t156 365l100 715q1 13 1 23q0 41 -21 51q-27 14 -160 22l8 50h465l-8 -50q-52 -3 -75 -4.5t-50.5 -6t-36.5 -9.5t-20 -16 t-13.5 -24t-5.5 -36l-105 -735q-38 -274 -202.5 -423.5t-417.5 -149.5q-264 0 -372 150q-80 111 -81 289q0 63 10 134l105 735q2 15 2 25v19.5t-5.5 15.5t-9 11t-16 8.5t-21 6t-30 4.5t-37 3t-47.5 3z" />
<glyph unicode="V" horiz-adv-x="1382" d="M211 1384l8 50h524l-8 -50q-125 -14 -156 -36q-21 -14 -21 -49q0 -17 5 -39l223 -1047h5l475 1004q23 48 28.5 75.5t-10.5 46.5t-49.5 28t-99.5 17l8 50h426l-8 -50q-89 -16 -122 -35.5t-63 -80.5l-614 -1278h-98l-293 1282q-9 38 -22 58.5t-45.5 34t-92.5 19.5z" />
<glyph unicode="W" horiz-adv-x="2050" d="M211 1384l8 50h524l-8 -50q-44 -5 -72 -9t-50 -11t-33 -15t-17 -21t-5.5 -28.5t5.5 -39.5l191 -1014h4l430 895l-21 131q-9 56 -40.5 79.5t-118.5 32.5l8 50h522l-8 -50q-38 -4 -62.5 -8t-46 -8.5t-33.5 -11t-20.5 -14.5t-11 -20.5t-2 -26.5t3.5 -35l143 -1014h4l428 971 q26 60 26 93q-1 19 -9 30q-24 29 -148 44l8 50h426l-8 -50q-90 -16 -123 -35.5t-61 -80.5l-574 -1278h-102l-160 1014l-487 -1014h-98l-252 1282q-11 56 -42 79.5t-118 32.5z" />
<glyph unicode="X" horiz-adv-x="1384" d="M37 0l8 49q92 17 135.5 36t83.5 69l459 544l-238 533q-34 76 -77 107.5t-148 45.5l6 50h559l-6 -50q-107 -6 -139 -40q-16 -17 -17 -44q0 -25 15 -59l180 -405l320 399q25 32 33.5 55.5t-0.5 44t-45.5 33t-100.5 16.5l6 50h449l-7 -50q-52 -8 -83 -16.5t-59 -29.5 t-44 -39t-53 -64l-385 -471l266 -598q7 -15 13.5 -27t12 -21.5t14.5 -17t14 -13t18 -10t18 -7t23 -6t24.5 -5t30 -5t33.5 -5.5l-8 -49h-586l8 49q130 17 168 51q20 17 20 48q0 29 -18 69l-184 412l-344 -424q-42 -52 -42 -82t39.5 -47t131.5 -27l-9 -49h-495z" />
<glyph unicode="Y" horiz-adv-x="1325" d="M211 1384l8 50h524l-8 -50q-124 -13 -152 -36q-15 -12 -15 -36q0 -21 12 -52l237 -658h4l363 615q41 66 41 100q0 12 -5 21q-20 31 -143 46l8 50h426l-8 -50q-94 -16 -135 -37t-74 -79l-438 -736l-55 -387q-2 -15 -2 -25v-19.5t5.5 -15.5t9 -11t16 -8.5t21 -6t30 -4.5 t37 -3t47.5 -3l-9 -49h-526l8 49q124 8 153 21.5t36 74.5l51 359l-291 768q-21 53 -57 79t-119 33z" />
<glyph unicode="Z" horiz-adv-x="1171" d="M55 0l6 45l1016 1319h-477q-112 0 -179 -59.5t-120 -204.5h-49l55 334h989l-6 -45l-1011 -1319h516q114 0 195.5 66.5t123.5 197.5h49l-67 -334h-1041z" />
<glyph unicode="[" horiz-adv-x="671" d="M156 -205l258 1843h446l-10 -73h-283l-237 -1696h282l-10 -74h-446z" />
<glyph unicode="\" horiz-adv-x="845" d="M340 1454l285 -1474h84l-287 1474h-82z" />
<glyph unicode="]" horiz-adv-x="671" d="M12 -205l11 74h282l238 1696h-283l10 73h447l-258 -1843h-447z" />
<glyph unicode="^" horiz-adv-x="1024" d="M328 963l360 471h47l232 -471h-45l-234 294l-315 -294h-45z" />
<glyph unicode="_" horiz-adv-x="985" d="M104 -135l11 74h739l-10 -74h-740z" />
<glyph unicode="`" horiz-adv-x="710" d="M389 1370q0 -33 31 -57l229 -187l25 21l-135 268q-15 36 -58 39q-34 2 -63 -24.5t-29 -59.5z" />
<glyph unicode="a" horiz-adv-x="1193" d="M145 401q0 143 48.5 266t128 204.5t181 127t208.5 45.5q93 0 168.5 -19t162.5 -67l66 76h29l-123 -878q-6 -33 9.5 -49.5t45.5 -16.5q51 0 127 45l4 -41q-172 -114 -272 -114q-95 0 -95 84q0 19 5 42l39 181h-11q-78 -161 -179 -234t-204 -73q-160 0 -249 114t-89 307z M328 412q0 -164 62 -245t163 -81q49 0 102.5 35t105 102.5t93.5 182.5t61 258l31 215q-39 41 -101 70.5t-122 29.5q-124 0 -215 -78t-135.5 -205t-44.5 -284z" />
<glyph unicode="b" horiz-adv-x="1208" d="M231 115l170 1212q2 16 2.5 26.5t0.5 20.5t-5 16t-8.5 11.5t-15.5 9t-20.5 6t-30 4.5t-37 3t-47.5 3l6 48l325 20h25l-119 -758h10q78 161 179 234t204 73q159 0 247.5 -114t88.5 -307q0 -143 -48 -266t-127.5 -204.5t-181 -127t-208.5 -45.5q-218 0 -410 135zM408 145 q40 -41 100.5 -70.5t120.5 -29.5q125 0 216 78t135 205t44 284q0 164 -62 245t-163 81q-49 0 -103 -35t-106 -102.5t-94 -182.5t-60 -258z" />
<glyph unicode="c" horiz-adv-x="991" d="M143 426q0 142 52 261.5t136.5 196t188 118.5t211.5 42q146 0 226.5 -70t80.5 -167q0 -62 -33 -94.5t-81 -32.5q-72 0 -72 53q0 21 24.5 57t24.5 66q0 59 -42 91t-124 32q-116 0 -211.5 -71.5t-148.5 -189t-53 -251.5q0 -178 89 -272.5t240 -94.5q150 0 273 76l16 -43 q-186 -153 -381 -153q-102 0 -183 35.5t-131 97t-76 141.5t-26 172z" />
<glyph unicode="d" horiz-adv-x="1193" d="M145 401q0 143 48.5 266t128 204.5t181 127t208.5 45.5q148 0 252 -53l45 336q3 20 2.5 33t-1.5 23.5t-11 16.5t-18 11t-32 7.5t-42.5 4t-59.5 4.5l6 48l326 20h24l-188 -1339q-6 -33 9.5 -49.5t45.5 -16.5q51 0 127 45l4 -41q-172 -114 -272 -114q-95 0 -95 84 q0 19 5 42l39 181h-11q-78 -161 -179 -234t-204 -73q-160 0 -249 114t-89 307zM328 412q0 -164 62 -245t163 -81q49 0 102.5 35t105 102.5t93.5 182.5t61 258l31 215q-39 41 -101 70.5t-122 29.5q-124 0 -215 -78t-135.5 -205t-44.5 -284z" />
<glyph unicode="e" horiz-adv-x="1017" d="M143 426q0 115 33.5 215t92 173t135.5 125.5t166 78.5t182 26q132 0 211 -60.5t79 -168.5q0 -22 -3 -41.5t-18.5 -54.5t-42.5 -64.5t-81 -64.5t-128 -61t-190 -48t-260 -32q7 -168 97 -258.5t235 -90.5q150 0 273 76l16 -43q-186 -153 -381 -153q-102 0 -183 35.5 t-131 97t-76 141.5t-26 172zM322 522q112 10 201.5 29.5t146 42t98.5 52.5t62 54t31.5 53.5t13.5 44.5t2 33q0 71 -45.5 109.5t-120.5 38.5q-156 0 -266 -125t-123 -332z" />
<glyph unicode="f" horiz-adv-x="696" d="M-59 -356q0 37 25 63.5t65 26.5q31 0 73 -16.5t54 -16.5q26 0 39.5 45t29.5 168l146 1034h-176l8 60l178 16l10 72q11 75 42.5 144t82.5 127.5t128 93t169 34.5q91 0 152 -43t61 -109q0 -56 -31.5 -85t-76.5 -29q-70 0 -70 53q0 22 19.5 46t19.5 46q0 30 -24.5 47 t-63.5 17q-46 0 -83.5 -19t-62.5 -49.5t-43.5 -76.5t-29.5 -91.5t-19 -103.5l-8 -74h242l-11 -76h-243l-125 -887q-31 -226 -144.5 -358.5t-240.5 -132.5q-92 0 -92 74z" />
<glyph unicode="g" horiz-adv-x="1093" d="M16 -236q0 70 60 133t170 128q-88 33 -88 118q0 57 48 110.5t159 111.5q-79 38 -124.5 108t-45.5 164q0 179 133 293t331 114q135 0 224 -63l284 43l-14 -117h-197q56 -80 56 -180q0 -182 -128 -293.5t-327 -111.5q-80 0 -141 20q-49 -36 -70.5 -61.5t-21.5 -59.5 q0 -30 27.5 -42t92.5 -17l318 -19q120 -6 195 -64t75 -153q0 -76 -36.5 -137.5t-97 -101.5t-142.5 -67t-170 -38.5t-183 -11.5q-195 0 -291 51.5t-96 142.5zM166 -201q0 -77 68 -120.5t200 -43.5q56 0 109 5t110.5 20t99.5 39t69.5 64.5t27.5 93.5q0 114 -188 129l-353 24 q-83 -67 -113 -110t-30 -101zM375 639q0 -118 56 -185t144 -67q70 0 121 27.5t79.5 76.5t42 108t13.5 130q0 116 -51.5 183t-140.5 67q-126 0 -195 -90t-69 -250z" />
<glyph unicode="h" d="M240 0l186 1327q2 16 2.5 26.5t0.5 20.5t-5 16t-8 11.5t-15.5 9t-21 6t-30 4.5t-37.5 3l-48 3l6 48l326 20h25l-132 -846h11q84 192 203 293.5t247 101.5q114 0 176 -74q46 -55 47 -156q0 -35 -6 -77l-82 -581q-6 -33 9.5 -49.5t46.5 -16.5q51 0 127 45l4 -41 q-172 -114 -273 -114q-95 0 -95 93q0 15 3 33l88 625q3 22 3 41q0 56 -26 92q-35 48 -116 49q-83 0 -167.5 -75t-147 -203.5t-82.5 -274.5l-49 -360h-170z" />
<glyph unicode="i" horiz-adv-x="612" d="M201 977l6 47l325 20h25l-125 -888q-6 -33 9.5 -49.5t45.5 -16.5q51 0 127 45l4 -41q-172 -114 -272 -114q-95 0 -95 93q0 15 3 33l108 771q2 18 3.5 29.5t-1.5 22t-5.5 16.5t-14 11.5t-19.5 8t-31 5t-40 4t-53 3.5zM373 1274q0 56 42.5 93.5t100.5 37.5q50 0 80.5 -28 t30.5 -74q0 -57 -42 -94.5t-102 -37.5q-48 0 -79 28t-31 75z" />
<glyph unicode="j" horiz-adv-x="575" d="M-59 -356q0 37 25 63.5t65 26.5q31 0 73 -16.5t54 -16.5q26 0 39.5 45t29.5 168l135 963q2 18 3.5 29.5t-1.5 22t-5.5 16.5t-14 11.5t-19.5 8t-31 5t-40 4t-53 3.5l6 47l325 20h25l-139 -983q-31 -226 -144.5 -358.5t-240.5 -132.5q-92 0 -92 74zM373 1274 q0 56 42.5 93.5t100.5 37.5q50 0 80.5 -28t30.5 -74q0 -57 -42 -94.5t-102 -37.5q-48 0 -79 28t-31 75z" />
<glyph unicode="k" horiz-adv-x="1212" d="M240 0l186 1327q3 20 2.5 33t-1.5 23.5t-11 16.5t-18 11t-32 7.5t-42.5 4t-59.5 4.5l6 48l326 20h25l-132 -928q91 0 131 7t62 24t57 64q156 216 254.5 299t186.5 83q46 0 73 -23t27 -65q0 -50 -31 -80t-69 -30q-26 0 -62.5 18.5t-60.5 18.5q-53 0 -114 -61.5 t-185 -231.5l289 -434q22 -33 42 -49.5t48 -16.5q49 0 125 45l4 -41q-55 -36 -86.5 -55t-82.5 -39t-93 -20q-50 0 -74 19.5t-56 70.5l-241 379q-23 35 -54.5 48t-97.5 13l-71 -510h-170z" />
<glyph unicode="l" horiz-adv-x="612" d="M254 106l172 1221q2 16 2.5 26.5t0.5 20.5t-5 16t-8 11.5t-15.5 9t-21 6t-30 4.5t-37.5 3l-48 3l6 48l326 20h25l-189 -1339q-6 -33 9.5 -49.5t45.5 -16.5q51 0 127 45l4 -41q-172 -114 -272 -114q-95 0 -95 93q0 15 3 33z" />
<glyph unicode="m" horiz-adv-x="1878" d="M201 977l6 47l325 20h25l-68 -395h11q86 195 196 295t236 100q114 0 176 -74q45 -55 45 -151q0 -34 -6 -74l-8 -59h10q172 358 414 358q115 0 177 -74q46 -55 46 -156q0 -35 -6 -77l-82 -581q-6 -33 9.5 -49.5t45.5 -16.5q51 0 127 45l4 -41q-172 -114 -272 -114 q-95 0 -95 93q0 15 3 33l88 625q4 26 4 49q0 133 -133 133q-79 0 -157 -67.5t-137.5 -184t-84.5 -253.5l-58 -408h-170l103 731q4 26 4 49q0 133 -133 133q-83 0 -165 -75.5t-142 -203t-80 -274.5l-49 -360h-170l122 877q2 18 3.5 29.5t-1.5 22t-5.5 16.5t-14 11.5t-19.5 8 t-31 5t-40 4t-53 3.5z" />
<glyph unicode="n" d="M201 977l6 47l325 20h25l-68 -395h11q84 192 203 293.5t247 101.5q114 0 176 -74q46 -55 47 -156q0 -35 -6 -77l-82 -581q-6 -33 9.5 -49.5t46.5 -16.5q51 0 127 45l4 -41q-172 -114 -273 -114q-95 0 -95 93q0 15 3 33l88 625q3 22 3 41q0 56 -26 92q-35 48 -116 49 q-83 0 -167.5 -75t-147 -203.5t-82.5 -274.5l-49 -360h-170l122 877q2 18 3.5 29.5t-1.5 22t-5.5 16.5t-14 11.5t-19.5 8t-31 5t-40 4t-53 3.5z" />
<glyph unicode="o" horiz-adv-x="1132" d="M145 436q0 -199 112.5 -327.5t305.5 -128.5q160 0 291 82.5t203.5 221.5t72.5 304q0 199 -112.5 327.5t-304.5 128.5q-160 0 -291 -82.5t-204 -221.5t-73 -304zM324 391q0 282 104 435t274 153q119 0 184.5 -90t65.5 -256q0 -282 -105.5 -435t-275.5 -153 q-119 0 -183 89.5t-64 256.5z" />
<glyph unicode="p" horiz-adv-x="1232" d="M6 -410l6 48q37 2 54.5 3.5t41 4t32.5 5t22.5 8t17.5 11t10 15.5t8.5 21t4.5 28l159 1143q2 18 3.5 29.5t-1.5 22t-5.5 16.5t-14 11.5t-19.5 8t-31 5t-40 4t-53 3.5l6 47l325 20h25l-57 -307h10q78 161 179 234t204 73q160 0 249 -114t89 -307q0 -143 -48 -266 t-127.5 -204.5t-181 -127t-208.5 -45.5q-148 0 -252 53l-41 -299q-3 -19 -2.5 -31.5t1.5 -22.5t11 -16t18 -10.5t32 -7t42.5 -4t59.5 -4.5l-7 -48h-522zM432 145q38 -41 99.5 -70.5t121.5 -29.5q124 0 215.5 78t136 205t44.5 284q0 164 -62.5 245t-165.5 81 q-48 0 -101.5 -35t-106 -102.5t-94.5 -182.5t-60 -258z" />
<glyph unicode="q" horiz-adv-x="1175" d="M145 401q0 143 48.5 266t128 204.5t181 127t208.5 45.5q93 0 168.5 -19t162.5 -67l66 76h29l-181 -1300q-2 -19 -1.5 -31t1.5 -22.5t11 -16.5t18 -10.5t31.5 -7t42 -4t59.5 -4.5l-6 -48h-522l6 48q48 3 69.5 4.5t47.5 6t34.5 9.5t19 16t13.5 24t6 36l91 553h-11 q-78 -161 -179 -234t-204 -73q-160 0 -249 114t-89 307zM328 412q0 -164 62 -245t165 -81q48 0 101.5 35t105 102.5t94 182.5t62.5 258l36 254q-99 61 -227 61q-125 0 -217 -78t-137 -205t-45 -284z" />
<glyph unicode="r" horiz-adv-x="860" d="M201 977l6 47l325 20h25l-68 -395h11q84 202 184 298.5t193 96.5q46 0 73 -23t27 -65q0 -46 -32 -78t-73 -32q-22 0 -56 15.5t-58 15.5q-30 0 -73.5 -38.5t-88 -103t-83 -165t-54.5 -210.5l-49 -360h-170l122 877q2 18 3.5 29.5t-1.5 22t-5.5 16.5t-14 11.5t-19.5 8 t-31 5t-40 4t-53 3.5z" />
<glyph unicode="s" horiz-adv-x="874" d="M113 51l14 277h49q24 -283 248 -283q111 0 176.5 59.5t65.5 149.5q0 45 -26 81t-67.5 60.5t-92 47.5t-100.5 48.5t-91.5 56t-67.5 78t-26 107.5q0 136 110.5 223.5t284.5 87.5q154 0 280 -63l-20 -264h-49q1 117 -64 189.5t-159 72.5q-102 0 -161 -48t-59 -130 q0 -45 26.5 -80t68.5 -59.5t93 -47.5t102 -49t93 -57t68.5 -79.5t26.5 -109.5q0 -156 -118 -247.5t-306 -91.5q-167 0 -299 71z" />
<glyph unicode="t" horiz-adv-x="737" d="M178 948l10 60l177 16l167 307h46l-43 -307h280l-10 -76h-281l-96 -698q-5 -35 -6 -62q0 -48 16 -72q24 -38 90 -38q34 0 68 7t55 14.5t62 23.5l2 -37q-82 -59 -152 -82.5t-145 -23.5q-104 0 -144 58q-28 40 -28 114q0 33 6 73l102 723h-176z" />
<glyph unicode="u" d="M201 977l6 47l321 20h25l-104 -751q-3 -21 -3 -39q0 -58 26 -95q34 -48 116 -48q83 0 167 75t146.5 203.5t83.5 274.5l51 360h166l-119 -868q-4 -33 11 -49.5t45 -16.5q53 0 129 45l4 -41q-172 -114 -275 -114q-63 0 -81 32q-12 20 -11 52q0 19 4 42l45 269h-10 q-84 -192 -203 -293.5t-247 -101.5q-114 0 -177 74q-47 55 -47 157q0 35 6 76l86 590q2 16 2.5 26.5t0.5 20.5t-5 16t-8.5 11.5t-15.5 9t-20.5 6t-30 4.5t-37 3t-47.5 3z" />
<glyph unicode="v" horiz-adv-x="1226" d="M201 977l6 47l323 20h25l-104 -751q-3 -22 -3 -41q0 -56 26 -92q35 -48 116 -49q63 0 134.5 45.5t132 118t100.5 173.5t40 203q0 84 -29.5 176t-29.5 121q0 45 22.5 70.5t67.5 25.5q48 0 79.5 -38t31.5 -103q0 -158 -58.5 -326t-149.5 -298.5t-208 -214.5t-227 -84 q-114 0 -176 74q-46 55 -47 156q0 35 6 77l83 590q2 16 2.5 26.5t0.5 20.5t-5 16t-8.5 11.5t-15.5 9t-20.5 6t-30 4.5t-37 3t-47.5 3z" />
<glyph unicode="w" horiz-adv-x="1880" d="M201 977l6 47l321 20h25l-104 -751q-3 -21 -3 -39q0 -58 26 -95q34 -48 116 -48q83 0 167 75t146.5 203.5t83.5 274.5l51 360h168l-100 -731q-3 -22 -3 -41q0 -56 26 -92q35 -48 116 -49q63 0 135 45.5t132.5 118t100.5 173.5t40 203q0 84 -30 176t-30 121 q0 45 22.5 70.5t67.5 25.5q48 0 79.5 -38t31.5 -103q0 -158 -58.5 -326t-149.5 -298.5t-208 -214.5t-227 -84q-54 0 -96 15.5t-74 50.5t-41 93q-4 26 -4 57q0 38 6 85l14 94h-10q-84 -192 -203 -293.5t-247 -101.5q-114 0 -177 74q-47 55 -47 157q0 35 6 76l86 590 q2 16 2.5 26.5t0.5 20.5t-5 16t-8.5 11.5t-15.5 9t-20.5 6t-30 4.5t-37 3t-47.5 3z" />
<glyph unicode="x" horiz-adv-x="1150" d="M66 68q0 46 32.5 78t73.5 32q22 0 56 -15.5t59 -15.5q55 0 137.5 108.5t128.5 270.5l-174 353q-30 58 -60 74t-112 24l6 47l258 20h25l217 -436q51 126 106.5 215.5t107.5 135.5t96 65.5t87 19.5q46 0 73 -23t27 -65q0 -46 -31.5 -78t-72.5 -32q-22 0 -56.5 15.5 t-58.5 15.5q-50 0 -125.5 -91.5t-126.5 -232.5l199 -397q29 -66 90 -66q51 0 127 45l4 -41q-59 -39 -86.5 -56t-78.5 -37.5t-93 -20.5q-44 0 -72 27t-55 79l-188 375q-40 -112 -87 -199.5t-90.5 -139.5t-89 -85t-82 -45t-71.5 -12q-46 0 -73 23t-27 65z" />
<glyph unicode="y" horiz-adv-x="1243" d="M188 -193q0 62 32.5 94.5t80.5 32.5q72 0 72 -53q0 -21 -23.5 -57t-23.5 -66q0 -123 166 -123q85 0 159 38.5t125 103.5t85 145t48 168l47 301h-10q-84 -192 -203 -293.5t-247 -101.5q-115 0 -178 74q-45 55 -45 154q0 36 6 79l83 574q2 16 2.5 26.5t0.5 20.5t-5 16 t-8.5 11.5t-15.5 9t-20.5 6t-30 4.5t-37 3t-47.5 3l6 47l321 20h25l-102 -735q-3 -21 -3 -39q0 -59 26 -95q35 -48 116 -48q83 0 167 75t146.5 203.5t83.5 274.5l49 344h168l-125 -893q-36 -257 -200.5 -409t-382.5 -152q-147 0 -227.5 70t-80.5 167z" />
<glyph unicode="z" horiz-adv-x="974" d="M55 0l6 45l773 836q-254 12 -392 12q-87 0 -129 -36.5t-75 -149.5h-54q17 90 37 155t37 99.5t37 54t33.5 24t29.5 4.5q49 0 232.5 -10t433.5 -10l-6 -45l-778 -848q121 -10 286.5 -33.5t202.5 -23.5q34 0 58 12t42.5 41t31.5 59.5t34 87.5q9 25 14 39h54 q-29 -158 -61 -247t-63 -118.5t-73 -29.5q-46 0 -146.5 20.5t-250 41t-314.5 20.5z" />
<glyph unicode="{" horiz-adv-x="759" d="M137 678l10 74q61 7 101.5 16.5t79 29t60.5 50.5t35 79.5t13 116.5q0 36 -3 113t-3 111q0 84 25.5 148t70 105.5t110.5 68t142 37.5t170 11l-6 -53q-51 -1 -90.5 -7.5t-78 -22t-65.5 -41t-47 -66t-28 -94.5q-3 -27 -9.5 -170t-17.5 -207q-8 -49 -30 -89t-50 -66.5 t-69 -48.5t-76 -34.5t-82 -25.5q40 -11 70.5 -23t63.5 -31.5t54.5 -43t35.5 -58.5t14 -78q0 -57 -43 -225.5t-43 -218.5q0 -56 18 -93.5t53.5 -56.5t76.5 -27t99 -10l-8 -53q-434 0 -434 252q0 61 17.5 123.5t38 107t38 106.5t17.5 122q0 85 -56.5 122t-173.5 50z" />
<glyph unicode="|" horiz-adv-x="481" d="M174 -205l264 1884h76l-264 -1884h-76z" />
<glyph unicode="}" horiz-adv-x="759" d="M12 -205q119 0 210 18.5t163 60t109.5 115t37.5 177.5q0 36 -5 111t-5 110q0 67 13.5 116t36 79t62 49.5t79.5 29t102 17.5l10 74q-118 13 -173.5 49.5t-55.5 122.5q0 59 17 122.5t37.5 110t37.5 109.5t17 120q0 252 -435 252l-6 -53q57 -2 99 -10.5t77.5 -28.5 t53.5 -57.5t18 -91.5q0 -48 -43 -222t-43 -227t19 -93t56 -67t73.5 -43.5t87.5 -31.5q-60 -17 -103 -34t-90 -46.5t-76 -75t-39 -106.5q-10 -63 -15 -202t-9 -169q-11 -70 -37.5 -116.5t-70 -70.5t-90.5 -33.5t-112 -11.5z" />
<glyph unicode="~" horiz-adv-x="1105" d="M344 1085q21 34 38.5 60t44 59.5t50 55.5t52.5 37.5t55 15.5q34 0 159 -41t179 -41q39 0 72.5 18.5t70.5 63.5l29 -23q-34 -51 -51 -75.5t-49 -61.5t-62.5 -53.5t-63.5 -16.5q-42 0 -163 41t-170 41q-47 0 -78 -21.5t-82 -80.5z" />
<glyph unicode="&#xa1;" horiz-adv-x="630" d="M172 -350q0 -80 84 -80q106 0 113 121q8 69 30 445t37 554h-45q-27 -125 -89.5 -402.5t-96 -438t-33.5 -199.5zM319 907q0 -46 31 -77t78 -31q56 0 98.5 40.5t42.5 98.5q0 45 -30.5 75.5t-75.5 30.5q-58 0 -101 -40.5t-43 -96.5z" />
<glyph unicode="&#xa2;" horiz-adv-x="907" d="M223 854q0 103 37.5 194.5t101 156t149 104t179.5 43.5l12 82h54l-11 -82q129 -7 228 -74l-15 -174h-32q-7 81 -53 136t-136 63l-108 -781q175 15 248 197h30l-39 -174q-108 -64 -245 -74l-13 -82h-53l10 82q-152 8 -248 114t-96 269zM356 840q0 -140 60 -225.5 t159 -94.5l109 783q-138 -11 -233 -137t-95 -326z" />
<glyph unicode="&#xa3;" horiz-adv-x="1208" d="M111 33q0 33 23.5 59t62 41t75.5 23.5t76 11.5q129 176 129 348q0 50 -14 111h-246l10 73h209q-6 15 -26.5 66t-28.5 74.5t-17 64.5t-8 76q0 46 15 94.5t50.5 99t87 90t131.5 64.5t177 25q195 0 340 -86l-24 -314h-48q-17 166 -83.5 245t-188.5 79q-128 0 -204.5 -68 t-76.5 -186q0 -63 36 -173t44 -151h306l-11 -73h-286v-21q0 -74 -51.5 -202t-129.5 -232q93 -4 244 -32.5t199 -28.5q66 0 119.5 45t103.5 172h53q-48 -134 -87 -199q-104 -170 -263 -170q-66 0 -135.5 27.5t-147.5 62t-149 45.5q-114 -114 -219 -114q-22 0 -34.5 14 t-12.5 39z" />
<glyph unicode="&#xa4;" horiz-adv-x="1398" d="M168 487l10 74h123v14q0 101 25 199h-117l10 74h129q82 227 276.5 366.5t430.5 139.5q223 0 391 -113l-21 -268h-47q-11 138 -92 222.5t-242 84.5q-170 0 -311 -116t-205 -316h400l-35 -74h-385q-22 -104 -25 -213h404l-35 -74h-365q15 -202 120 -318t265 -116 q312 0 426 307h50l-64 -266q-191 -114 -422 -114q-226 0 -377.5 140t-177.5 367h-139z" />
<glyph unicode="&#xa5;" horiz-adv-x="1409" d="M281 1284l8 47h493l-6 -47q-112 -12 -138.5 -34.5t-4.5 -82.5l219 -600h4l332 561q51 82 33.5 112.5t-131.5 43.5l6 47h401l-8 -47q-86 -15 -125.5 -34.5t-69.5 -73.5l-395 -660h285l-10 -74h-291l-43 -307q-2 -17 -1.5 -28t1.5 -20.5t10 -15t16 -9.5t28.5 -6.5t38.5 -4 t54 -4.5l-6 -47h-498l9 47q112 8 138.5 20.5t33.5 67.5l43 307h-285l10 74h260l-250 664q-21 50 -53 73.5t-108 30.5z" />
<glyph unicode="&#xa6;" horiz-adv-x="481" d="M174 -205l105 737h75l-104 -737h-76zM336 942l102 737h76l-102 -737h-76z" />
<glyph unicode="&#xa7;" horiz-adv-x="911" d="M115 219q0 -113 95.5 -186.5t244.5 -73.5q79 0 153.5 26t136 76t99 133t37.5 187q0 89 -36 206t-89 221t-104.5 187t-90.5 129l-43 -37q84 -126 149.5 -316.5t65.5 -346.5q0 -166 -84 -278.5t-233 -112.5q-106 0 -157.5 39t-51.5 84q0 21 10.5 36t23 22.5t23 22.5 t10.5 35q0 26 -19.5 41t-43.5 15q-15 0 -26 -2t-29.5 -11t-29.5 -33.5t-11 -62.5zM233 1053q0 -117 62.5 -279t132.5 -281t125 -184l43 37q-84 126 -149.5 317t-65.5 347q0 166 84 278.5t233 112.5q106 0 157.5 -39t51.5 -84q0 -21 -10.5 -36.5t-23 -23t-23 -22.5t-10.5 -35 q0 -26 19.5 -40.5t43.5 -14.5q12 0 19.5 0.5t23.5 6t26 16t18.5 32.5t8.5 53q0 113 -96 187t-246 74q-79 0 -152.5 -26t-135 -76t-99 -133t-37.5 -187z" />
<glyph unicode="&#xa8;" horiz-adv-x="952" d="M369 1212q0 50 33 83.5t81 33.5q39 0 64.5 -25.5t25.5 -64.5q0 -49 -35 -81t-83 -32q-39 0 -62.5 23.5t-23.5 62.5zM725 1212q0 50 34.5 83.5t84.5 33.5q38 0 62 -25t24 -65q0 -48 -34 -80.5t-81 -32.5q-40 0 -65 24t-25 62z" />
<glyph unicode="&#xa9;" horiz-adv-x="1402" d="M193 764q0 138 59.5 266.5t157 220.5t228 147.5t267.5 55.5q153 0 277 -73t193 -198t69 -276q0 -183 -100 -343.5t-264.5 -254.5t-348.5 -94q-152 0 -276 73.5t-193 199t-69 276.5zM231 768q0 -141 64.5 -258.5t181 -186.5t260.5 -69q172 0 326.5 87.5t249 238 t94.5 323.5q0 141 -64.5 258.5t-181 186.5t-260.5 69q-172 0 -326.5 -87.5t-249 -238t-94.5 -323.5zM492 791q0 177 118.5 297t282.5 120q119 0 209 -61l-8 -143h-25q-7 74 -52 120.5t-132 46.5q-123 0 -212 -110t-89 -283q0 -123 58 -196.5t151 -73.5q166 0 233 166h25 l-35 -142q-102 -61 -228 -61q-130 0 -213 89.5t-83 230.5z" />
<glyph unicode="&#xaa;" horiz-adv-x="823" d="M182 657l8 68h644l-9 -68h-643zM207 1061q0 171 103.5 278t240.5 107q107 0 199 -51l45 45h20l-72 -522q-5 -37 31 -37q28 0 72 24v-28q-104 -70 -168 -70q-75 0 -60 78l21 96h-6q-44 -91 -103 -132.5t-120 -41.5q-97 0 -150 69t-53 185zM336 1067q0 -94 35 -141t92 -47 q61 0 119.5 86t81.5 256l18 127q-21 22 -56.5 37.5t-68.5 15.5q-103 0 -162 -94t-59 -240z" />
<glyph unicode="&#xab;" horiz-adv-x="1486" d="M274 528l5 43l630 379l-12 -86l-397 -313l307 -320l-10 -84zM786 528l5 43l630 379l-12 -86l-397 -313l307 -320l-10 -84z" />
<glyph unicode="&#xac;" horiz-adv-x="1222" d="M270 504l15 88h825l-59 -416h-88l45 328h-738z" />
<glyph unicode="&#xad;" horiz-adv-x="903" d="M195 510l10 76h659l-10 -76h-659z" />
<glyph unicode="&#xae;" horiz-adv-x="1402" d="M193 764q0 138 59.5 266.5t157 220.5t228 147.5t267.5 55.5q153 0 277 -73t193 -198t69 -276q0 -183 -100 -343.5t-264.5 -254.5t-348.5 -94q-152 0 -276 73.5t-193 199t-69 276.5zM231 768q0 -141 64.5 -258.5t181 -186.5t260.5 -69q172 0 326.5 87.5t249 238 t94.5 323.5q0 141 -64.5 258.5t-181 186.5t-260.5 69q-172 0 -326.5 -87.5t-249 -238t-94.5 -323.5zM471 498l2 24q62 3 77 10t19 37l80 572q4 31 -7.5 37.5t-72.5 11.5l2 24h299q101 0 157 -47t56 -123q0 -82 -59 -148.5t-182 -82.5q50 -34 88 -100l69 -127 q21 -36 46.5 -48t64.5 -16l-4 -24h-152q-38 42 -61 100l-47 92q-48 90 -86 119h-72l-33 -240q-4 -30 8.5 -37t73.5 -10l-2 -24h-264zM694 846h76q219 0 219 194q0 61 -33.5 100.5t-111.5 39.5h-103z" />
<glyph unicode="&#xaf;" horiz-adv-x="970" d="M354 1126l11 70h577l-10 -70h-578z" />
<glyph unicode="&#xb0;" horiz-adv-x="516" d="M240 1149q0 83 62 143t144 60q68 0 113 -46t45 -114q0 -82 -63 -141.5t-146 -59.5q-68 0 -111.5 45t-43.5 113zM303 1157q0 -43 29.5 -72.5t73.5 -29.5q56 0 96.5 38.5t40.5 94.5q0 43 -30 72.5t-75 29.5q-55 0 -95 -39t-40 -94z" />
<glyph unicode="&#xb1;" horiz-adv-x="1146" d="M244 285l10 75h332l39 273h-332l10 76h332l47 333h74l-47 -333h333l-10 -76h-334l-39 -273h334l-10 -75h-739z" />
<glyph unicode="&#xb2;" horiz-adv-x="641" d="M180 840l8 57q94 66 158 115.5t123.5 105.5t93.5 106.5t54 108.5t20 121t-29 105.5t-88 42.5q-61 0 -96 -25t-39 -53q-2 -15 10.5 -32t12.5 -30q0 -23 -20 -35t-44 -12q-53 0 -53 45q0 76 78 133.5t186 57.5q93 0 153 -51t60 -144q0 -128 -104 -243t-347 -271h396 l-15 -102h-518z" />
<glyph unicode="&#xb3;" horiz-adv-x="649" d="M201 993q0 -68 64.5 -117t158.5 -49q82 0 152.5 30t116.5 90.5t46 139.5q0 70 -46.5 117.5t-127.5 59.5l2 2q76 22 129 74.5t62 117.5q12 88 -39 140.5t-160 52.5q-107 0 -184.5 -57.5t-77.5 -133.5q0 -45 51 -45q24 0 44 12t20 35q0 12 -11.5 29t-11.5 29q0 29 35 55.5 t100 26.5q67 0 94 -40t19 -106q-7 -50 -28.5 -86t-52 -54t-62.5 -25t-68 -5l-6 -53q52 0 85.5 -6.5t61 -25t36 -56.5t-0.5 -98q-10 -75 -68 -123.5t-133 -46.5q-58 0 -89 23t-31 50q0 18 20.5 37t20.5 39q0 18 -16 27.5t-34 9.5q-71 0 -71 -70z" />
<glyph unicode="&#xb4;" horiz-adv-x="708" d="M358 1147l209 268q28 36 70 39q30 1 50 -18.5t20 -49.5q0 -41 -48 -73l-282 -187z" />
<glyph unicode="&#xb6;" horiz-adv-x="1329" d="M283 993q0 186 130.5 313.5t317.5 127.5h227l-194 -1373q-31 -226 -144.5 -358.5t-240.5 -132.5q-92 0 -92 74q0 37 25 63.5t65 26.5q31 0 73 -16.5t54 -16.5q30 0 55 52.5t39 160.5l100 700q-86 0 -156.5 21.5t-117.5 58t-79.5 86t-47 103t-14.5 110.5zM868 0l203 1434 h322l-9 -50q-124 -8 -152.5 -21.5t-35.5 -74.5l-162 -1143q-2 -15 -2 -25v-19.5t5.5 -15.5t9 -11t16 -8.5t21 -6t30 -4.5t37 -3t47.5 -3l-8 -49h-322z" />
<glyph unicode="&#xb7;" horiz-adv-x="729" d="M313 494q0 57 42.5 97t99.5 40q47 0 76.5 -31.5t29.5 -77.5q0 -57 -42 -97t-99 -40q-46 0 -76.5 31.5t-30.5 77.5z" />
<glyph unicode="&#xb8;" horiz-adv-x="714" d="M139 -406q31 7 51 12t53 17.5t52.5 27t35 38.5t15.5 53q0 66 -100 92l30 166h54l-11 -74q25 -5 50.5 -15.5t53.5 -28t45 -46.5t17 -65q0 -87 -96.5 -147.5t-238.5 -80.5z" />
<glyph unicode="&#xb9;" horiz-adv-x="684" d="M195 840l4 32q145 5 180 13.5t41 42.5l90 633l-227 -52l-4 31l331 111h35l-102 -723q-4 -34 28 -42.5t174 -13.5l-4 -32h-546z" />
<glyph unicode="&#xba;" horiz-adv-x="823" d="M182 657l8 68h644l-9 -68h-643zM272 1081q0 -120 68 -197t186 -77q149 0 247.5 106.5t98.5 257.5q0 120 -68.5 197.5t-187.5 77.5q-147 0 -245.5 -107t-98.5 -258zM397 1051q0 169 58 259.5t155 90.5q65 0 101.5 -51.5t36.5 -147.5q0 -169 -59 -259.5t-154 -90.5 q-67 0 -102.5 51t-35.5 148z" />
<glyph unicode="&#xbb;" horiz-adv-x="1484" d="M219 147l629 381l6 43l-522 379l-13 -86l310 -313l-400 -320zM731 147l629 381l6 43l-522 379l-13 -86l310 -313l-400 -320z" />
<glyph unicode="&#xbc;" horiz-adv-x="1740" d="M166 635l4 33q146 5 180.5 13t40.5 42l90 633l-227 -51l-4 30l332 111h34l-102 -723q-4 -34 28 -42t175 -13l-4 -33h-547zM670 -20l700 1474h53l-698 -1474h-55zM1106 221l4 31l485 559h86l-77 -541h114l-6 -49h-115l-30 -221h-127l30 221h-364zM1180 270h299l57 404z " />
<glyph unicode="&#xbd;" horiz-adv-x="1740" d="M166 635l4 33q146 5 180.5 13t40.5 42l90 633l-227 -51l-4 30l332 111h34l-102 -723q-4 -34 28 -42t175 -13l-4 -33h-547zM645 -20l701 1474h53l-699 -1474h-55zM1161 0l8 57q95 66 158.5 115t123.5 105.5t94 107t54.5 108.5t20.5 121t-29.5 105.5t-91.5 42.5 q-60 0 -93.5 -25t-37.5 -53q-2 -15 9.5 -31.5t11.5 -29.5q0 -23 -20.5 -35.5t-43.5 -12.5q-53 0 -53 46q0 75 78.5 132.5t183.5 57.5q96 0 155.5 -50.5t59.5 -144.5q0 -128 -104 -243t-347 -271h396l-15 -102h-518z" />
<glyph unicode="&#xbe;" horiz-adv-x="1738" d="M172 788q0 70 72 70q18 0 33.5 -9.5t15.5 -27.5q0 -20 -20.5 -39t-20.5 -37q0 -27 31.5 -50t89.5 -23q74 -2 132 46t68 124q9 60 0.5 98t-36 56.5t-61 25t-85.5 6.5l6 53q36 -2 68 5t62.5 25t52 54t28.5 86q8 66 -18.5 106t-93.5 40q-65 0 -100.5 -27t-35.5 -55 q0 -13 11.5 -29t11.5 -29q0 -23 -20 -35t-44 -12q-51 0 -51 45q0 76 77.5 133.5t184.5 57.5q109 0 160 -52.5t39 -140.5q-9 -65 -61.5 -117.5t-128.5 -74.5l-2 -2q81 -12 127.5 -59.5t46.5 -116.5q0 -79 -46 -139.5t-117 -90.5t-153 -30q-94 0 -158.5 48.5t-64.5 116.5z M647 -20l703 1474h53l-701 -1474h-55zM1106 221l4 31l485 559h84l-75 -541h112l-6 -49h-113l-30 -221h-127l30 221h-364zM1178 270h301l55 404z" />
<glyph unicode="&#xbf;" horiz-adv-x="1005" d="M135 -106q0 83 37 159t80 123.5t121 98.5t113.5 69t103.5 49q5 3 8 4l57 293h43l-24 -313q-121 -76 -168 -115q-189 -155 -189 -364q0 -109 52.5 -181.5t160.5 -72.5q109 0 169.5 43.5t68.5 91.5q3 25 -17 52t-20 48q0 36 30.5 56t65.5 20q84 0 84 -72q0 -83 -58.5 -155 t-158 -115t-215.5 -43q-149 0 -246.5 83.5t-97.5 240.5zM578 907q0 56 42.5 96.5t100.5 40.5q45 0 75.5 -30.5t30.5 -75.5q0 -58 -42.5 -98.5t-98.5 -40.5q-47 0 -77.5 31t-30.5 77z" />
<glyph unicode="&#xc0;" horiz-adv-x="1419" d="M35 0l8 49q89 15 121.5 35t62.5 82l615 1278h98l293 -1282q9 -38 22 -58.5t46 -34.5t92 -20l-9 -49h-524l8 49q124 14 155.5 36t16.5 89l-63 301h-518l-123 -258q-42 -92 -17.5 -122.5t150.5 -45.5l-8 -49h-426zM494 549h467l-144 672h-4zM647 1780q0 34 28.5 60t63.5 24 q43 -3 58 -39l135 -269l-25 -20l-231 186q-29 23 -29 58z" />
<glyph unicode="&#xc1;" horiz-adv-x="1419" d="M35 0l8 49q89 15 121.5 35t62.5 82l615 1278h98l293 -1282q9 -38 22 -58.5t46 -34.5t92 -20l-9 -49h-524l8 49q124 14 155.5 36t16.5 89l-63 301h-518l-123 -258q-42 -92 -17.5 -122.5t150.5 -45.5l-8 -49h-426zM494 549h467l-144 672h-4zM887 1556l209 269q31 36 71 39 q30 1 50 -18.5t20 -49.5q0 -42 -47 -74l-283 -186z" />
<glyph unicode="&#xc2;" horiz-adv-x="1419" d="M35 0l8 49q89 15 121.5 35t62.5 82l615 1278h98l293 -1282q9 -38 22 -58.5t46 -34.5t92 -20l-9 -49h-524l8 49q124 14 155.5 36t16.5 89l-63 301h-518l-123 -258q-42 -92 -17.5 -122.5t150.5 -45.5l-8 -49h-426zM494 549h467l-144 672h-4zM651 1536l279 332h49l184 -332 h-47l-184 170l-234 -170h-47z" />
<glyph unicode="&#xc3;" horiz-adv-x="1419" d="M35 0l8 49q89 15 121.5 35t62.5 82l615 1278h98l293 -1282q9 -38 22 -58.5t46 -34.5t92 -20l-9 -49h-524l8 49q124 14 155.5 36t16.5 89l-63 301h-518l-123 -258q-42 -92 -17.5 -122.5t150.5 -45.5l-8 -49h-426zM494 549h467l-144 672h-4zM596 1542q24 39 44 68t50.5 65 t62.5 56t62 20q37 0 143 -37t142 -37q50 0 81 14t66 58l33 -23q-22 -34 -33.5 -51t-36.5 -48.5t-43.5 -47.5t-44.5 -29.5t-51 -13.5q-43 0 -146.5 37t-146.5 37q-49 0 -79 -19t-74 -71z" />
<glyph unicode="&#xc4;" horiz-adv-x="1419" d="M35 0l8 49q89 15 121.5 35t62.5 82l615 1278h98l293 -1282q9 -38 22 -58.5t46 -34.5t92 -20l-9 -49h-524l8 49q124 14 155.5 36t16.5 89l-63 301h-518l-123 -258q-42 -92 -17.5 -122.5t150.5 -45.5l-8 -49h-426zM494 549h467l-144 672h-4zM641 1622q0 51 33.5 84t83.5 33 q38 0 63 -25t25 -65q0 -49 -34.5 -81t-82.5 -32q-39 0 -63.5 23.5t-24.5 62.5zM999 1622q0 50 34.5 83.5t82.5 33.5q38 0 62 -25t24 -65q0 -49 -33.5 -81t-81.5 -32q-38 0 -63 24t-25 62z" />
<glyph unicode="&#xc5;" horiz-adv-x="1419" d="M35 0l8 49q89 15 121.5 35t62.5 82l607 1264q-46 15 -73.5 55t-27.5 92q0 84 60.5 143.5t144.5 59.5q68 0 113 -45.5t45 -114.5q0 -67 -43.5 -120.5t-108.5 -72.5l289 -1265q9 -38 22 -58.5t46 -34.5t92 -20l-9 -49h-524l8 49q124 14 155.5 36t16.5 89l-63 301h-518 l-123 -258q-42 -92 -17.5 -122.5t150.5 -45.5l-8 -49h-426zM494 549h467l-144 672h-4zM805 1585q0 -39 25.5 -65.5t64.5 -26.5q56 0 91.5 34.5t35.5 88.5q0 39 -25.5 65.5t-66.5 26.5q-53 0 -89 -35t-36 -88z" />
<glyph unicode="&#xc6;" horiz-adv-x="1886" d="M35 0l8 49q96 17 146 39.5t87 77.5l873 1268h823l-35 -334h-49q-13 141 -60.5 202.5t-164.5 61.5h-379l-84 -598h205q104 0 163.5 44t88.5 161h49l-68 -484h-49q3 118 -43.5 161.5t-150.5 43.5h-205l-88 -622h362q126 0 204.5 58t133.5 206h49l-67 -334h-1043l9 49 q48 3 69.5 4.5t47.5 6t34.5 9.5t19 16t13.5 24t6 36l47 334h-412l-180 -262q-11 -17 -18 -29.5t-15 -32.5t-5.5 -35t12 -30t35 -25.5t65.5 -15.5l-8 -49h-426zM625 553h372l95 680h-5z" />
<glyph unicode="&#xc7;" horiz-adv-x="1320" d="M195 616q0 176 65.5 333t175.5 267t256.5 174t304.5 64q239 0 422 -123l-20 -284h-49q-6 70 -29.5 128.5t-65.5 105.5t-110.5 73t-157.5 26q-120 0 -230.5 -56.5t-194 -157t-133.5 -248.5t-50 -320q0 -248 117 -396.5t305 -148.5q335 0 463 334h49l-68 -285 q-206 -120 -450 -122l-9 -62q26 -5 53.5 -16.5t59.5 -31t52 -51.5t20 -71q0 -98 -105.5 -163t-263.5 -89l-12 53q235 48 235 164q0 76 -114 109l26 160q-242 19 -392 194t-150 440z" />
<glyph unicode="&#xc8;" horiz-adv-x="1226" d="M82 0l8 49q123 8 152.5 21.5t36.5 74.5l161 1143q2 15 2 25v19.5t-5.5 15.5t-9 11t-16 8.5t-21 6t-30 4.5t-37 3t-47.5 3l7 50h1030l-35 -334h-49q-13 140 -62 202t-166 62h-378l-82 -598h204q104 0 163.5 44t88.5 161h50l-68 -484h-49q3 117 -44 161t-151 44h-205 l-88 -622h363q125 0 204 58.5t134 205.5h49l-68 -334h-1042zM567 1780q0 -34 31 -58l229 -186l25 20l-135 269q-15 36 -58 39q-34 2 -63 -24.5t-29 -59.5z" />
<glyph unicode="&#xc9;" horiz-adv-x="1226" d="M82 0l8 49q123 8 152.5 21.5t36.5 74.5l161 1143q2 15 2 25v19.5t-5.5 15.5t-9 11t-16 8.5t-21 6t-30 4.5t-37 3t-47.5 3l7 50h1030l-35 -334h-49q-13 140 -62 202t-166 62h-378l-82 -598h204q104 0 163.5 44t88.5 161h50l-68 -484h-49q3 117 -44 161t-151 44h-205 l-88 -622h363q125 0 204 58.5t134 205.5h49l-68 -334h-1042zM809 1556l209 269q28 36 69 39q30 1 50 -18.5t20 -49.5q0 -42 -47 -74l-283 -186z" />
<glyph unicode="&#xca;" horiz-adv-x="1226" d="M82 0l8 49q123 8 152.5 21.5t36.5 74.5l161 1143q2 15 2 25v19.5t-5.5 15.5t-9 11t-16 8.5t-21 6t-30 4.5t-37 3t-47.5 3l7 50h1030l-35 -334h-49q-13 140 -62 202t-166 62h-378l-82 -598h204q104 0 163.5 44t88.5 161h50l-68 -484h-49q3 117 -44 161t-151 44h-205 l-88 -622h363q125 0 204 58.5t134 205.5h49l-68 -334h-1042zM573 1536l279 332h47l184 -332h-47l-184 170l-234 -170h-45z" />
<glyph unicode="&#xcb;" horiz-adv-x="1226" d="M82 0l8 49q123 8 152.5 21.5t36.5 74.5l161 1143q2 15 2 25v19.5t-5.5 15.5t-9 11t-16 8.5t-21 6t-30 4.5t-37 3t-47.5 3l7 50h1030l-35 -334h-49q-13 140 -62 202t-166 62h-378l-82 -598h204q104 0 163.5 44t88.5 161h50l-68 -484h-49q3 117 -44 161t-151 44h-205 l-88 -622h363q125 0 204 58.5t134 205.5h49l-68 -334h-1042zM563 1622q0 50 33.5 83.5t81.5 33.5q39 0 64.5 -25.5t25.5 -64.5q0 -48 -35.5 -80.5t-83.5 -32.5q-39 0 -62.5 23.5t-23.5 62.5zM920 1622q0 51 34 84t84 33q38 0 62 -25t24 -65q0 -49 -33.5 -81t-80.5 -32 q-40 0 -65 24t-25 62z" />
<glyph unicode="&#xcc;" horiz-adv-x="690" d="M82 0l8 49q123 8 152.5 21.5t36.5 74.5l161 1143q2 15 2 25v19.5t-5.5 15.5t-9 11t-16 8.5t-21 6t-30 4.5t-37 3t-47.5 3l7 50h526l-6 -50q-124 -8 -153 -21.5t-36 -74.5l-161 -1143q-2 -20 -1.5 -31.5t1.5 -22t11 -16.5t18 -10.5t31.5 -7t42.5 -4t60 -4.5l-8 -49h-526z M299 1780q0 -34 31 -58l229 -186l25 20l-133 269q-19 36 -58 39q-35 2 -64.5 -24t-29.5 -60z" />
<glyph unicode="&#xcd;" horiz-adv-x="690" d="M82 0l8 49q123 8 152.5 21.5t36.5 74.5l161 1143q2 15 2 25v19.5t-5.5 15.5t-9 11t-16 8.5t-21 6t-30 4.5t-37 3t-47.5 3l7 50h526l-6 -50q-124 -8 -153 -21.5t-36 -74.5l-161 -1143q-2 -20 -1.5 -31.5t1.5 -22t11 -16.5t18 -10.5t31.5 -7t42.5 -4t60 -4.5l-8 -49h-526z M541 1556l209 269q28 35 69 39q30 1 51 -18.5t21 -49.5q0 -41 -49 -74l-283 -186z" />
<glyph unicode="&#xce;" horiz-adv-x="690" d="M82 0l8 49q123 8 152.5 21.5t36.5 74.5l161 1143q2 15 2 25v19.5t-5.5 15.5t-9 11t-16 8.5t-21 6t-30 4.5t-37 3t-47.5 3l7 50h526l-6 -50q-124 -8 -153 -21.5t-36 -74.5l-161 -1143q-2 -20 -1.5 -31.5t1.5 -22t11 -16.5t18 -10.5t31.5 -7t42.5 -4t60 -4.5l-8 -49h-526z M305 1536l279 332h47l184 -332h-45l-186 170l-232 -170h-47z" />
<glyph unicode="&#xcf;" horiz-adv-x="690" d="M82 0l8 49q123 8 152.5 21.5t36.5 74.5l161 1143q2 15 2 25v19.5t-5.5 15.5t-9 11t-16 8.5t-21 6t-30 4.5t-37 3t-47.5 3l7 50h526l-6 -50q-124 -8 -153 -21.5t-36 -74.5l-161 -1143q-2 -20 -1.5 -31.5t1.5 -22t11 -16.5t18 -10.5t31.5 -7t42.5 -4t60 -4.5l-8 -49h-526z M295 1622q0 50 33.5 83.5t81.5 33.5q40 0 65 -25t25 -65q0 -48 -35.5 -80.5t-83.5 -32.5q-39 0 -62.5 23.5t-23.5 62.5zM651 1622q0 50 34.5 83.5t84.5 33.5q38 0 62 -25t24 -65q0 -48 -34 -80.5t-81 -32.5q-39 0 -64.5 24t-25.5 62z" />
<glyph unicode="&#xd0;" horiz-adv-x="1519" d="M82 0l8 49q123 8 152.5 21.5t36.5 74.5l75 539h-174l8 70h177l75 534q2 15 2 25v19.5t-5.5 15.5t-9 11t-16 8.5t-21 6t-30 4.5t-37 3t-47.5 3l7 50h641q266 0 435 -171.5t169 -447.5q0 -176 -66 -329.5t-176 -259t-257 -166t-306 -60.5h-641zM442 70h291q119 0 227.5 50 t194.5 144t137 245t51 337q0 245 -120.5 381.5t-309.5 136.5h-290l-84 -610h243l-10 -70h-244z" />
<glyph unicode="&#xd1;" horiz-adv-x="1480" d="M70 0l8 49q132 8 163 21.5t38 74.5l161 1143q7 61 -19.5 74.5t-156.5 21.5l6 50h387l541 -1129l139 983q7 61 -21.5 74.5t-170.5 21.5l6 50h477l-6 -50q-52 -3 -75 -4.5t-50.5 -6t-36.5 -9.5t-20 -16t-13.5 -24t-5.5 -36l-184 -1298h-94l-621 1294l-160 -1139 q-7 -62 21.5 -75t171.5 -21l-8 -49h-477zM623 1542q24 39 44 68t50.5 65t62.5 56t62 20q37 0 142.5 -37t141.5 -37q50 0 81.5 14t66.5 58l33 -23q-22 -34 -33.5 -51t-36.5 -48.5t-43.5 -47.5t-44.5 -29.5t-51 -13.5q-43 0 -146.5 37t-146.5 37q-49 0 -80 -19t-74 -71z" />
<glyph unicode="&#xd2;" horiz-adv-x="1593" d="M195 616q0 -279 168.5 -457.5t431.5 -178.5q159 0 306.5 64t258 173.5t176.5 266.5t66 333q0 279 -169 458t-432 179q-159 0 -306.5 -64t-257.5 -174t-176 -267t-66 -333zM379 586q0 187 51.5 340.5t138 251t195.5 150t227 52.5q189 0 307.5 -142t118.5 -390 q0 -150 -33.5 -280t-92 -223.5t-136.5 -160t-167 -99t-183 -32.5q-189 0 -307.5 142.5t-118.5 390.5zM754 1780q0 -35 30 -58l230 -186l24 20l-135 269q-16 36 -57 39q-34 2 -63 -24.5t-29 -59.5z" />
<glyph unicode="&#xd3;" horiz-adv-x="1593" d="M195 616q0 -279 168.5 -457.5t431.5 -178.5q159 0 306.5 64t258 173.5t176.5 266.5t66 333q0 279 -169 458t-432 179q-159 0 -306.5 -64t-257.5 -174t-176 -267t-66 -333zM379 586q0 187 51.5 340.5t138 251t195.5 150t227 52.5q189 0 307.5 -142t118.5 -390 q0 -150 -33.5 -280t-92 -223.5t-136.5 -160t-167 -99t-183 -32.5q-189 0 -307.5 142.5t-118.5 390.5zM995 1556l209 269q28 36 70 39q30 1 49.5 -18.5t19.5 -49.5q0 -42 -47 -74l-282 -186z" />
<glyph unicode="&#xd4;" horiz-adv-x="1593" d="M195 616q0 -279 168.5 -457.5t431.5 -178.5q159 0 306.5 64t258 173.5t176.5 266.5t66 333q0 279 -169 458t-432 179q-159 0 -306.5 -64t-257.5 -174t-176 -267t-66 -333zM379 586q0 187 51.5 340.5t138 251t195.5 150t227 52.5q189 0 307.5 -142t118.5 -390 q0 -150 -33.5 -280t-92 -223.5t-136.5 -160t-167 -99t-183 -32.5q-189 0 -307.5 142.5t-118.5 390.5zM760 1536l278 332h47l185 -332h-47l-185 170l-233 -170h-45z" />
<glyph unicode="&#xd5;" horiz-adv-x="1593" d="M195 616q0 -279 168.5 -457.5t431.5 -178.5q159 0 306.5 64t258 173.5t176.5 266.5t66 333q0 279 -169 458t-432 179q-159 0 -306.5 -64t-257.5 -174t-176 -267t-66 -333zM379 586q0 187 51.5 340.5t138 251t195.5 150t227 52.5q189 0 307.5 -142t118.5 -390 q0 -150 -33.5 -280t-92 -223.5t-136.5 -160t-167 -99t-183 -32.5q-189 0 -307.5 142.5t-118.5 390.5zM702 1542q128 209 220 209q37 0 142.5 -37t141.5 -37q50 0 81.5 14t68.5 58l30 -23q-29 -44 -44 -65t-45 -56.5t-59.5 -52t-59.5 -16.5q-43 0 -146.5 37t-146.5 37 q-49 0 -78.5 -18.5t-73.5 -71.5z" />
<glyph unicode="&#xd6;" horiz-adv-x="1593" d="M195 616q0 -279 168.5 -457.5t431.5 -178.5q159 0 306.5 64t258 173.5t176.5 266.5t66 333q0 279 -169 458t-432 179q-159 0 -306.5 -64t-257.5 -174t-176 -267t-66 -333zM379 586q0 187 51.5 340.5t138 251t195.5 150t227 52.5q189 0 307.5 -142t118.5 -390 q0 -150 -33.5 -280t-92 -223.5t-136.5 -160t-167 -99t-183 -32.5q-189 0 -307.5 142.5t-118.5 390.5zM750 1622q0 50 33 83.5t81 33.5q39 0 64.5 -25.5t25.5 -64.5q0 -49 -35 -81t-83 -32q-39 0 -62.5 23.5t-23.5 62.5zM1106 1622q0 50 34.5 83.5t84.5 33.5q38 0 62 -25 t24 -65q0 -48 -34 -80.5t-81 -32.5q-40 0 -65 24t-25 62z" />
<glyph unicode="&#xd7;" horiz-adv-x="1124" d="M252 356l350 308l-264 307l59 51l265 -307l352 307l45 -49l-352 -309l266 -310l-62 -51l-266 307l-350 -307z" />
<glyph unicode="&#xd8;" horiz-adv-x="1593" d="M195 616q0 176 66 333t176 267t257.5 174t306.5 64q128 0 232 -43l55 105h84l-74 -136q142 -79 223 -226.5t81 -336.5q0 -176 -66 -333t-176.5 -266.5t-258 -173.5t-306.5 -64q-124 0 -228 40l-53 -102h-86l74 133q-143 79 -225 227.5t-82 337.5zM379 586q0 -149 45 -262 t125 -181l641 1188q-88 49 -199 49q-118 0 -227 -52.5t-195.5 -150t-138 -251t-51.5 -340.5zM610 100q86 -47 195 -47q94 0 183 32.5t167 99t136.5 160t92 223.5t33.5 280q0 148 -44 260.5t-124 179.5z" />
<glyph unicode="&#xd9;" horiz-adv-x="1546" d="M260 1384l8 50h527l-9 -50q-124 -8 -152.5 -21.5t-35.5 -74.5l-100 -715q-34 -240 47 -366.5t282 -126.5q198 0 320 128t156 365l100 715q7 61 -20 74.5t-160 21.5l8 50h465l-8 -50q-52 -3 -75 -4.5t-50.5 -6t-36.5 -9.5t-20 -16t-13.5 -24t-5.5 -36l-105 -735 q-38 -274 -202.5 -423.5t-417.5 -149.5q-264 0 -372.5 149.5t-70.5 423.5l105 735q2 15 2 25v19.5t-5.5 15.5t-9 11t-16 8.5t-21 6t-30 4.5t-37 3t-47.5 3zM770 1780q0 -34 31 -58l229 -186l25 20l-135 269q-15 36 -58 39q-34 2 -63 -24.5t-29 -59.5z" />
<glyph unicode="&#xda;" horiz-adv-x="1546" d="M260 1384l8 50h527l-9 -50q-124 -8 -152.5 -21.5t-35.5 -74.5l-100 -715q-34 -240 47 -366.5t282 -126.5q198 0 320 128t156 365l100 715q7 61 -20 74.5t-160 21.5l8 50h465l-8 -50q-52 -3 -75 -4.5t-50.5 -6t-36.5 -9.5t-20 -16t-13.5 -24t-5.5 -36l-105 -735 q-38 -274 -202.5 -423.5t-417.5 -149.5q-264 0 -372.5 149.5t-70.5 423.5l105 735q2 15 2 25v19.5t-5.5 15.5t-9 11t-16 8.5t-21 6t-30 4.5t-37 3t-47.5 3zM1012 1556l209 269q28 36 69 39q30 1 50 -18.5t20 -49.5q0 -42 -47 -74l-283 -186z" />
<glyph unicode="&#xdb;" horiz-adv-x="1546" d="M260 1384l8 50h527l-9 -50q-124 -8 -152.5 -21.5t-35.5 -74.5l-100 -715q-34 -240 47 -366.5t282 -126.5q198 0 320 128t156 365l100 715q7 61 -20 74.5t-160 21.5l8 50h465l-8 -50q-52 -3 -75 -4.5t-50.5 -6t-36.5 -9.5t-20 -16t-13.5 -24t-5.5 -36l-105 -735 q-38 -274 -202.5 -423.5t-417.5 -149.5q-264 0 -372.5 149.5t-70.5 423.5l105 735q2 15 2 25v19.5t-5.5 15.5t-9 11t-16 8.5t-21 6t-30 4.5t-37 3t-47.5 3zM776 1536l279 332h47l184 -332h-47l-184 170l-234 -170h-45z" />
<glyph unicode="&#xdc;" horiz-adv-x="1546" d="M260 1384l8 50h527l-9 -50q-124 -8 -152.5 -21.5t-35.5 -74.5l-100 -715q-34 -240 47 -366.5t282 -126.5q198 0 320 128t156 365l100 715q7 61 -20 74.5t-160 21.5l8 50h465l-8 -50q-52 -3 -75 -4.5t-50.5 -6t-36.5 -9.5t-20 -16t-13.5 -24t-5.5 -36l-105 -735 q-38 -274 -202.5 -423.5t-417.5 -149.5q-264 0 -372.5 149.5t-70.5 423.5l105 735q2 15 2 25v19.5t-5.5 15.5t-9 11t-16 8.5t-21 6t-30 4.5t-37 3t-47.5 3zM766 1622q0 50 33.5 83.5t81.5 33.5q39 0 64.5 -25.5t25.5 -64.5q0 -48 -35.5 -80.5t-83.5 -32.5q-39 0 -62.5 23.5 t-23.5 62.5zM1122 1622q0 50 34.5 83.5t84.5 33.5q38 0 62 -25t24 -65q0 -48 -34 -80.5t-81 -32.5q-40 0 -65 24t-25 62z" />
<glyph unicode="&#xdd;" horiz-adv-x="1325" d="M211 1384l8 50h524l-8 -50q-124 -13 -152 -36t-3 -88l237 -658h4l363 615q55 89 35.5 120.5t-142.5 46.5l8 50h426l-8 -50q-94 -16 -135 -37t-74 -79l-438 -736l-55 -387q-2 -15 -2 -25v-19.5t5.5 -15.5t9 -11t16 -8.5t21 -6t30 -4.5t37 -3t47.5 -3l-9 -49h-526l8 49 q124 8 153 21.5t36 74.5l51 359l-291 768q-21 53 -57 79t-119 33zM911 1556l209 269q31 36 70 39q30 1 51 -18.5t21 -49.5q0 -42 -50 -74l-282 -186z" />
<glyph unicode="&#xde;" horiz-adv-x="1253" d="M82 0l8 49q123 8 152.5 21.5t36.5 74.5l161 1143q2 15 2 25v19.5t-5.5 15.5t-9 11t-16 8.5t-21 6t-30 4.5t-37 3t-47.5 3l7 50h526l-6 -50q-124 -8 -153 -21.5t-36 -74.5l-20 -141h266q204 0 315 -93t111 -247q0 -68 -19.5 -133t-67 -128t-118 -109.5t-181 -75.5 t-247.5 -29h-174l-26 -187q-2 -20 -1.5 -31.5t1.5 -22t11 -16.5t18 -10.5t31.5 -7t42.5 -4t60 -4.5l-8 -49h-526zM489 406h170q122 0 210 30.5t136.5 86.5t70.5 124t22 152q0 55 -14.5 102t-46 88t-90.5 64.5t-140 23.5h-223z" />
<glyph unicode="&#xdf;" horiz-adv-x="1286" d="M-59 -356q0 37 25 63.5t65 26.5q31 0 73 -16.5t54 -16.5q26 0 39.5 45t29.5 168l160 1130q15 114 89 217.5t187.5 168.5t233.5 65q132 0 202 -66.5t56 -173.5q-7 -47 -37.5 -93t-68.5 -82.5t-75.5 -72t-63 -77t-25.5 -82.5q0 -33 20 -66.5t52 -63.5t71 -62t78 -68t71 -75 t52 -89.5t20 -104.5q0 -102 -55.5 -180.5t-145 -118.5t-196.5 -40q-133 0 -252 71l12 277h50q8 -87 25.5 -145t44 -88t56 -41t70.5 -11q101 0 163 62t62 155q0 48 -19 91t-48.5 75.5t-66 63t-73 58.5t-66 56.5t-48.5 63.5t-19 73q0 47 27 96.5t65.5 95t76.5 94.5t65 115 t27 138q0 75 -34 116.5t-96 41.5q-125 0 -207.5 -97t-109.5 -292l-139 -988q-31 -226 -144.5 -358.5t-240.5 -132.5q-92 0 -92 74z" />
<glyph unicode="&#xe0;" horiz-adv-x="1193" d="M145 401q0 143 48.5 266t128 204.5t181 127t208.5 45.5q93 0 168.5 -19t162.5 -67l66 76h29l-123 -878q-6 -33 9.5 -49.5t45.5 -16.5q51 0 127 45l4 -41q-172 -114 -272 -114q-116 0 -90 126l39 181h-11q-78 -161 -179 -234t-204 -73q-160 0 -249 114t-89 307zM328 412 q0 -164 62 -245t163 -81q49 0 102.5 35t105 102.5t93.5 182.5t61 258l31 215q-39 41 -101 70.5t-122 29.5q-124 0 -215 -78t-135.5 -205t-44.5 -284zM487 1370q0 -34 29 -57l229 -187l25 21l-133 268q-19 36 -57 39q-35 2 -64 -24t-29 -60z" />
<glyph unicode="&#xe1;" horiz-adv-x="1193" d="M145 401q0 143 48.5 266t128 204.5t181 127t208.5 45.5q93 0 168.5 -19t162.5 -67l66 76h29l-123 -878q-6 -33 9.5 -49.5t45.5 -16.5q51 0 127 45l4 -41q-172 -114 -272 -114q-116 0 -90 126l39 181h-11q-78 -161 -179 -234t-204 -73q-160 0 -249 114t-89 307zM328 412 q0 -164 62 -245t163 -81q49 0 102.5 35t105 102.5t93.5 182.5t61 258l31 215q-39 41 -101 70.5t-122 29.5q-124 0 -215 -78t-135.5 -205t-44.5 -284zM727 1147l209 268q31 36 70 39q30 1 50.5 -18.5t20.5 -49.5q0 -42 -49 -73l-283 -187z" />
<glyph unicode="&#xe2;" horiz-adv-x="1193" d="M145 401q0 143 48.5 266t128 204.5t181 127t208.5 45.5q93 0 168.5 -19t162.5 -67l66 76h29l-123 -878q-6 -33 9.5 -49.5t45.5 -16.5q51 0 127 45l4 -41q-172 -114 -272 -114q-116 0 -90 126l39 181h-11q-78 -161 -179 -234t-204 -73q-160 0 -249 114t-89 307zM328 412 q0 -164 62 -245t163 -81q49 0 102.5 35t105 102.5t93.5 182.5t61 258l31 215q-39 41 -101 70.5t-122 29.5q-124 0 -215 -78t-135.5 -205t-44.5 -284zM492 1126l278 332h47l184 -332h-45l-186 170l-231 -170h-47z" />
<glyph unicode="&#xe3;" horiz-adv-x="1193" d="M145 401q0 143 48.5 266t128 204.5t181 127t208.5 45.5q93 0 168.5 -19t162.5 -67l66 76h29l-123 -878q-6 -33 9.5 -49.5t45.5 -16.5q51 0 127 45l4 -41q-172 -114 -272 -114q-116 0 -90 126l39 181h-11q-78 -161 -179 -234t-204 -73q-160 0 -249 114t-89 307zM328 412 q0 -164 62 -245t163 -81q49 0 102.5 35t105 102.5t93.5 182.5t61 258l31 215q-39 41 -101 70.5t-122 29.5q-124 0 -215 -78t-135.5 -205t-44.5 -284zM434 1133q127 208 219 208q37 0 143 -36.5t142 -36.5q52 0 83 13.5t66 57.5l33 -22q-27 -41 -44 -64.5t-46.5 -58 t-59 -51.5t-59.5 -17q-43 0 -147 37t-148 37q-47 0 -77.5 -19t-73.5 -71z" />
<glyph unicode="&#xe4;" horiz-adv-x="1193" d="M145 401q0 143 48.5 266t128 204.5t181 127t208.5 45.5q93 0 168.5 -19t162.5 -67l66 76h29l-123 -878q-6 -33 9.5 -49.5t45.5 -16.5q51 0 127 45l4 -41q-172 -114 -272 -114q-116 0 -90 126l39 181h-11q-78 -161 -179 -234t-204 -73q-160 0 -249 114t-89 307zM328 412 q0 -164 62 -245t163 -81q49 0 102.5 35t105 102.5t93.5 182.5t61 258l31 215q-39 41 -101 70.5t-122 29.5q-124 0 -215 -78t-135.5 -205t-44.5 -284zM481 1212q0 51 33.5 84t83.5 33q38 0 63 -25t25 -65q0 -48 -35 -80.5t-82 -32.5q-40 0 -64 23t-24 63zM838 1212 q0 50 35 83.5t83 33.5q38 0 62 -25t24 -65q0 -49 -33.5 -81t-80.5 -32q-39 0 -64.5 24t-25.5 62z" />
<glyph unicode="&#xe5;" horiz-adv-x="1193" d="M145 401q0 143 48.5 266t128 204.5t181 127t208.5 45.5q93 0 168.5 -19t162.5 -67l66 76h29l-123 -878q-6 -33 9.5 -49.5t45.5 -16.5q51 0 127 45l4 -41q-172 -114 -272 -114q-116 0 -90 126l39 181h-11q-78 -161 -179 -234t-204 -73q-160 0 -249 114t-89 307zM328 412 q0 -164 62 -245t163 -81q49 0 102.5 35t105 102.5t93.5 182.5t61 258l31 215q-39 41 -101 70.5t-122 29.5q-124 0 -215 -78t-135.5 -205t-44.5 -284zM604 1270q0 75 57 129.5t132 54.5q62 0 102.5 -41.5t40.5 -103.5q0 -74 -57.5 -128.5t-133.5 -54.5q-61 0 -101 41.5 t-40 102.5zM672 1278q0 -35 24 -60.5t58 -25.5q49 0 81.5 32.5t32.5 78.5q0 37 -23.5 61.5t-60.5 24.5q-46 0 -79 -32t-33 -79z" />
<glyph unicode="&#xe6;" horiz-adv-x="1763" d="M145 401q0 143 48.5 266t128 204.5t181 127t208.5 45.5q231 0 401 -135q79 65 179.5 100t205.5 35q132 0 212.5 -60.5t80.5 -168.5q0 -22 -3 -41.5t-18.5 -55t-42.5 -65t-81.5 -64.5t-128.5 -61t-189.5 -48t-259.5 -31q4 -167 94.5 -258t235.5 -91t274 76l15 -43 q-186 -153 -381 -153q-174 0 -278.5 98t-129.5 256q-162 -354 -414 -354q-160 0 -249 114t-89 307zM328 412q0 -164 62 -245t165 -81q96 0 194 127t152 340q28 108 64 173.5t90 127.5q-164 125 -330 125q-125 0 -216 -76t-136 -203t-45 -288zM1067 524q112 9 201.5 28.5 t146 41.5t98.5 52t62 54t31.5 53.5t13.5 44.5t2 33q0 72 -45 110t-121 38q-155 0 -266 -126t-123 -329z" />
<glyph unicode="&#xe7;" horiz-adv-x="991" d="M143 426q0 142 52 261.5t136.5 196t188 118.5t211.5 42q146 0 226.5 -70t80.5 -167q0 -62 -33 -94.5t-81 -32.5q-72 0 -72 53q0 21 24.5 57t24.5 66q0 59 -42 91t-124 32q-116 0 -211.5 -71.5t-148.5 -189t-53 -251.5q0 -178 89 -272.5t240 -94.5q150 0 273 76l16 -43 q-25 -20 -38.5 -31t-55 -37.5t-78 -41.5t-91.5 -28.5t-110 -14.5l-8 -54q25 -5 50.5 -15.5t53.5 -28t45 -46.5t17 -65q0 -87 -96 -147.5t-238 -80.5l-10 51q31 7 50 12t52.5 17.5t53.5 27t35.5 38.5t15.5 53q0 65 -101 92l27 148q-91 7 -163 45.5t-117 99t-68 137t-23 162.5 z" />
<glyph unicode="&#xe8;" horiz-adv-x="1017" d="M143 426q0 115 33.5 215t92 173t135.5 125.5t166 78.5t182 26q132 0 211 -60.5t79 -168.5q0 -22 -3 -41.5t-18.5 -54.5t-42.5 -64.5t-81 -64.5t-128 -61t-190 -48t-260 -32q7 -168 97 -258.5t235 -90.5q150 0 273 76l16 -43q-186 -153 -381 -153q-102 0 -183 35.5 t-131 97t-76 141.5t-26 172zM322 522q112 10 201.5 29.5t146 42t98.5 52.5t62 54t31.5 53.5t13.5 44.5t2 33q0 71 -45.5 109.5t-120.5 38.5q-156 0 -266 -125t-123 -332zM485 1370q0 33 29.5 59.5t63.5 24.5q41 -3 57 -39l135 -268l-25 -21l-229 187q-31 24 -31 57z" />
<glyph unicode="&#xe9;" horiz-adv-x="1017" d="M143 426q0 115 33.5 215t92 173t135.5 125.5t166 78.5t182 26q132 0 211 -60.5t79 -168.5q0 -22 -3 -41.5t-18.5 -54.5t-42.5 -64.5t-81 -64.5t-128 -61t-190 -48t-260 -32q7 -168 97 -258.5t235 -90.5q150 0 273 76l16 -43q-186 -153 -381 -153q-102 0 -183 35.5 t-131 97t-76 141.5t-26 172zM322 522q112 10 201.5 29.5t146 42t98.5 52.5t62 54t31.5 53.5t13.5 44.5t2 33q0 71 -45.5 109.5t-120.5 38.5q-156 0 -266 -125t-123 -332zM727 1147l209 268q28 36 70 39q30 1 49.5 -18.5t19.5 -49.5q0 -41 -47 -73l-283 -187z" />
<glyph unicode="&#xea;" horiz-adv-x="1017" d="M143 426q0 115 33.5 215t92 173t135.5 125.5t166 78.5t182 26q132 0 211 -60.5t79 -168.5q0 -22 -3 -41.5t-18.5 -54.5t-42.5 -64.5t-81 -64.5t-128 -61t-190 -48t-260 -32q7 -168 97 -258.5t235 -90.5q150 0 273 76l16 -43q-186 -153 -381 -153q-102 0 -183 35.5 t-131 97t-76 141.5t-26 172zM322 522q112 10 201.5 29.5t146 42t98.5 52.5t62 54t31.5 53.5t13.5 44.5t2 33q0 71 -45.5 109.5t-120.5 38.5q-156 0 -266 -125t-123 -332zM492 1126l278 332h47l184 -332h-47l-184 170l-233 -170h-45z" />
<glyph unicode="&#xeb;" horiz-adv-x="1017" d="M143 426q0 115 33.5 215t92 173t135.5 125.5t166 78.5t182 26q132 0 211 -60.5t79 -168.5q0 -22 -3 -41.5t-18.5 -54.5t-42.5 -64.5t-81 -64.5t-128 -61t-190 -48t-260 -32q7 -168 97 -258.5t235 -90.5q150 0 273 76l16 -43q-186 -153 -381 -153q-102 0 -183 35.5 t-131 97t-76 141.5t-26 172zM322 522q112 10 201.5 29.5t146 42t98.5 52.5t62 54t31.5 53.5t13.5 44.5t2 33q0 71 -45.5 109.5t-120.5 38.5q-156 0 -266 -125t-123 -332zM481 1212q0 50 33.5 83.5t81.5 33.5q39 0 64.5 -25.5t25.5 -64.5q0 -48 -35.5 -80.5t-83.5 -32.5 q-39 0 -62.5 23.5t-23.5 62.5zM838 1212q0 51 34 84t84 33q38 0 62 -25t24 -65q0 -49 -33.5 -81t-80.5 -32q-40 0 -65 24t-25 62z" />
<glyph unicode="&#xec;" horiz-adv-x="612" d="M201 977l6 47l325 20h25l-125 -888q-6 -33 9.5 -49.5t45.5 -16.5q51 0 127 45l4 -41q-172 -114 -272 -114q-110 0 -92 126l108 771q2 18 3.5 29.5t-1.5 22t-5.5 16.5t-14 11.5t-19.5 8t-31 5t-40 4t-53 3.5zM219 1370q0 -34 29 -57l231 -187l25 21l-135 268 q-15 36 -58 39q-35 2 -63.5 -24t-28.5 -60z" />
<glyph unicode="&#xed;" horiz-adv-x="612" d="M201 977l6 47l325 20h25l-125 -888q-6 -33 9.5 -49.5t45.5 -16.5q51 0 127 45l4 -41q-172 -114 -272 -114q-110 0 -92 126l108 771q2 18 3.5 29.5t-1.5 22t-5.5 16.5t-14 11.5t-19.5 8t-31 5t-40 4t-53 3.5zM459 1147l209 268q31 36 71 39q30 1 50 -18.5t20 -49.5 q0 -41 -47 -73l-283 -187z" />
<glyph unicode="&#xee;" horiz-adv-x="612" d="M201 977l6 47l325 20h25l-125 -888q-6 -33 9.5 -49.5t45.5 -16.5q51 0 127 45l4 -41q-172 -114 -272 -114q-110 0 -92 126l108 771q2 18 3.5 29.5t-1.5 22t-5.5 16.5t-14 11.5t-19.5 8t-31 5t-40 4t-53 3.5zM223 1126l279 332h49l184 -332h-47l-184 170l-234 -170h-47z " />
<glyph unicode="&#xef;" horiz-adv-x="612" d="M201 977l6 47l325 20h25l-125 -888q-6 -33 9.5 -49.5t45.5 -16.5q51 0 127 45l4 -41q-172 -114 -272 -114q-110 0 -92 126l108 771q2 18 3.5 29.5t-1.5 22t-5.5 16.5t-14 11.5t-19.5 8t-31 5t-40 4t-53 3.5zM213 1212q0 51 33.5 84t83.5 33q38 0 63 -25t25 -65 q0 -49 -34.5 -81t-82.5 -32q-39 0 -63.5 23.5t-24.5 62.5zM571 1212q0 50 34.5 83.5t82.5 33.5q38 0 62 -25t24 -65q0 -49 -33.5 -81t-81.5 -32q-38 0 -63 24t-25 62z" />
<glyph unicode="&#xf0;" horiz-adv-x="1081" d="M135 373q0 103 32.5 192t88 151.5t128 107t153 66t163.5 21.5q121 0 203 -32q-34 193 -149 335l-269 -102l13 78l207 80q-118 118 -283 166l33 59q199 -46 352 -186l254 98l-8 -78l-193 -74q108 -121 167.5 -278.5t59.5 -325.5q0 -138 -37.5 -259.5t-107 -213.5 t-176 -145t-236.5 -53q-171 0 -283 107t-112 286zM315 332q0 -131 62 -205t164 -74q146 0 250 166t110 471l4 109q-93 22 -196 22q-82 0 -152.5 -30.5t-125 -89.5t-85.5 -154t-31 -215z" />
<glyph unicode="&#xf1;" d="M201 977l6 47l325 20h25l-68 -395h11q84 192 203 293.5t247 101.5q114 0 176.5 -74.5t40.5 -232.5l-82 -581q-6 -33 9.5 -49.5t46.5 -16.5q51 0 127 45l4 -41q-172 -114 -273 -114q-110 0 -92 126l88 625q12 85 -23 133.5t-116 48.5q-83 0 -167.5 -75t-147 -203.5 t-82.5 -274.5l-49 -360h-170l122 877q2 18 3.5 29.5t-1.5 22t-5.5 16.5t-14 11.5t-19.5 8t-31 5t-40 4t-53 3.5zM475 1133q127 208 219 208q37 0 143 -36.5t142 -36.5q50 0 81 13.5t66 57.5l33 -22q-28 -43 -44 -65t-46 -57.5t-59.5 -52t-59.5 -16.5q-43 0 -146.5 37 t-146.5 37q-49 0 -79 -19t-74 -71z" />
<glyph unicode="&#xf2;" horiz-adv-x="1132" d="M145 436q0 -199 112.5 -327.5t305.5 -128.5q160 0 291 82.5t203.5 221.5t72.5 304q0 199 -112.5 327.5t-304.5 128.5q-160 0 -291 -82.5t-204 -221.5t-73 -304zM324 391q0 282 104 435t274 153q119 0 184.5 -90t65.5 -256q0 -282 -105.5 -435t-275.5 -153 q-119 0 -183 89.5t-64 256.5zM463 1370q0 -33 31 -57l229 -187l25 21l-136 268q-16 36 -57 39q-34 2 -63 -24.5t-29 -59.5z" />
<glyph unicode="&#xf3;" horiz-adv-x="1132" d="M145 436q0 -199 112.5 -327.5t305.5 -128.5q160 0 291 82.5t203.5 221.5t72.5 304q0 199 -112.5 327.5t-304.5 128.5q-160 0 -291 -82.5t-204 -221.5t-73 -304zM324 391q0 282 104 435t274 153q119 0 184.5 -90t65.5 -256q0 -282 -105.5 -435t-275.5 -153 q-119 0 -183 89.5t-64 256.5zM705 1147l208 268q28 36 70 39q30 1 50 -18.5t20 -49.5q0 -41 -47 -73l-283 -187z" />
<glyph unicode="&#xf4;" horiz-adv-x="1132" d="M145 436q0 -199 112.5 -327.5t305.5 -128.5q160 0 291 82.5t203.5 221.5t72.5 304q0 199 -112.5 327.5t-304.5 128.5q-160 0 -291 -82.5t-204 -221.5t-73 -304zM324 391q0 282 104 435t274 153q119 0 184.5 -90t65.5 -256q0 -282 -105.5 -435t-275.5 -153 q-119 0 -183 89.5t-64 256.5zM469 1126l279 332h47l184 -332h-47l-184 170l-234 -170h-45z" />
<glyph unicode="&#xf5;" horiz-adv-x="1132" d="M145 436q0 -199 112.5 -327.5t305.5 -128.5q160 0 291 82.5t203.5 221.5t72.5 304q0 199 -112.5 327.5t-304.5 128.5q-160 0 -291 -82.5t-204 -221.5t-73 -304zM324 391q0 282 104 435t274 153q119 0 184.5 -90t65.5 -256q0 -282 -105.5 -435t-275.5 -153 q-119 0 -183 89.5t-64 256.5zM412 1133q127 208 219 208q37 0 142.5 -36.5t141.5 -36.5q51 0 82.5 13.5t67.5 57.5l31 -22q-28 -43 -44 -65t-46 -57.5t-59.5 -52t-59.5 -16.5q-43 0 -146.5 37t-146.5 37q-49 0 -78.5 -18.5t-73.5 -71.5z" />
<glyph unicode="&#xf6;" horiz-adv-x="1132" d="M145 436q0 -199 112.5 -327.5t305.5 -128.5q160 0 291 82.5t203.5 221.5t72.5 304q0 199 -112.5 327.5t-304.5 128.5q-160 0 -291 -82.5t-204 -221.5t-73 -304zM324 391q0 282 104 435t274 153q119 0 184.5 -90t65.5 -256q0 -282 -105.5 -435t-275.5 -153 q-119 0 -183 89.5t-64 256.5zM459 1212q0 50 33 83.5t81 33.5q39 0 65 -25.5t26 -64.5q0 -48 -35.5 -80.5t-83.5 -32.5q-39 0 -62.5 23.5t-23.5 62.5zM815 1212q0 50 34.5 83.5t84.5 33.5q38 0 62 -25t24 -65q0 -48 -34 -80.5t-81 -32.5q-40 0 -65 24t-25 62z" />
<glyph unicode="&#xf7;" horiz-adv-x="1146" d="M293 627l10 73h739l-10 -73h-739zM535 352q0 47 34 81t80 34q38 0 63 -26t25 -64q0 -46 -34.5 -78.5t-79.5 -32.5q-38 0 -63 24.5t-25 61.5zM616 948q0 47 35.5 81t83.5 34q37 0 61.5 -26t24.5 -64q0 -46 -34.5 -78.5t-79.5 -32.5q-38 0 -64.5 24.5t-26.5 61.5z" />
<glyph unicode="&#xf8;" horiz-adv-x="1132" d="M145 436q0 165 73 304t204 221.5t291 82.5q67 0 139 -20l39 82h72l-54 -107q105 -55 163 -163.5t58 -247.5q0 -165 -72.5 -304t-203.5 -221.5t-291 -82.5q-78 0 -137 20l-41 -82h-72l54 107q-106 55 -164 163.5t-58 247.5zM324 391q0 -190 84 -280l409 841 q-50 27 -115 27q-170 0 -274 -153t-104 -435zM461 72q47 -27 110 -27q170 0 275.5 153t105.5 435q0 191 -84 278z" />
<glyph unicode="&#xf9;" d="M201 977l6 47l321 20h25l-104 -751q-11 -86 23.5 -134t115.5 -48q83 0 167 75t146.5 203.5t83.5 274.5l51 360h166l-119 -868q-4 -33 11 -49.5t45 -16.5q53 0 129 45l4 -41q-172 -114 -275 -114q-62 0 -80.5 32.5t-7.5 93.5l45 269h-10q-84 -192 -203 -293.5t-247 -101.5 q-114 0 -177 74.5t-41 232.5l86 590q2 16 2.5 26.5t0.5 20.5t-5 16t-8.5 11.5t-15.5 9t-20.5 6t-30 4.5t-37 3t-47.5 3zM535 1370q0 -34 30 -57l230 -187l24 21l-135 268q-16 36 -57 39q-34 2 -63 -24.5t-29 -59.5z" />
<glyph unicode="&#xfa;" d="M201 977l6 47l321 20h25l-104 -751q-11 -86 23.5 -134t115.5 -48q83 0 167 75t146.5 203.5t83.5 274.5l51 360h166l-119 -868q-4 -33 11 -49.5t45 -16.5q53 0 129 45l4 -41q-172 -114 -275 -114q-62 0 -80.5 32.5t-7.5 93.5l45 269h-10q-84 -192 -203 -293.5t-247 -101.5 q-114 0 -177 74.5t-41 232.5l86 590q2 16 2.5 26.5t0.5 20.5t-5 16t-8.5 11.5t-15.5 9t-20.5 6t-30 4.5t-37 3t-47.5 3zM776 1147l209 268q28 36 70 39q30 1 49.5 -18.5t19.5 -49.5q0 -41 -47 -73l-282 -187z" />
<glyph unicode="&#xfb;" d="M201 977l6 47l321 20h25l-104 -751q-11 -86 23.5 -134t115.5 -48q83 0 167 75t146.5 203.5t83.5 274.5l51 360h166l-119 -868q-4 -33 11 -49.5t45 -16.5q53 0 129 45l4 -41q-172 -114 -275 -114q-62 0 -80.5 32.5t-7.5 93.5l45 269h-10q-84 -192 -203 -293.5t-247 -101.5 q-114 0 -177 74.5t-41 232.5l86 590q2 16 2.5 26.5t0.5 20.5t-5 16t-8.5 11.5t-15.5 9t-20.5 6t-30 4.5t-37 3t-47.5 3zM541 1126l278 332h47l185 -332h-47l-185 170l-233 -170h-45z" />
<glyph unicode="&#xfc;" d="M201 977l6 47l321 20h25l-104 -751q-11 -86 23.5 -134t115.5 -48q83 0 167 75t146.5 203.5t83.5 274.5l51 360h166l-119 -868q-4 -33 11 -49.5t45 -16.5q53 0 129 45l4 -41q-172 -114 -275 -114q-62 0 -80.5 32.5t-7.5 93.5l45 269h-10q-84 -192 -203 -293.5t-247 -101.5 q-114 0 -177 74.5t-41 232.5l86 590q2 16 2.5 26.5t0.5 20.5t-5 16t-8.5 11.5t-15.5 9t-20.5 6t-30 4.5t-37 3t-47.5 3zM530 1212q0 50 33.5 83.5t81.5 33.5q39 0 64.5 -25.5t25.5 -64.5q0 -48 -35.5 -80.5t-83.5 -32.5q-39 0 -62.5 23.5t-23.5 62.5zM887 1212 q0 50 34.5 83.5t84.5 33.5q38 0 62 -25t24 -65q0 -48 -34 -80.5t-81 -32.5q-40 0 -65 24t-25 62z" />
<glyph unicode="&#xfd;" horiz-adv-x="1243" d="M188 -193q0 62 32.5 94.5t80.5 32.5q72 0 72 -53q0 -21 -23.5 -57t-23.5 -66q0 -123 166 -123q85 0 159 38.5t125 103.5t85 145t48 168l47 301h-10q-84 -192 -203 -293.5t-247 -101.5q-115 0 -177.5 74.5t-39.5 232.5l83 574q2 16 2.5 26.5t0.5 20.5t-5 16t-8.5 11.5 t-15.5 9t-20.5 6t-30 4.5t-37 3t-47.5 3l6 47l321 20h25l-102 -735q-11 -86 23.5 -134t115.5 -48q83 0 167 75t146.5 203.5t83.5 274.5l49 344h168l-125 -893q-36 -257 -200.5 -409t-382.5 -152q-147 0 -227.5 70t-80.5 167zM788 1147l209 268q28 36 70 39q30 1 50 -18.5 t20 -49.5q0 -41 -47 -73l-283 -187z" />
<glyph unicode="&#xfe;" horiz-adv-x="1183" d="M6 -410l6 48q37 2 54.5 3.5t41 4t32.5 5t22.5 8t17.5 11t10 15.5t8.5 21t4.5 28l223 1593q2 16 2.5 26.5t0.5 20.5t-5 16t-8 11.5t-15.5 9t-21 6t-30 4.5t-37.5 3l-48 3l6 48l326 20h25l-121 -758h10q78 161 179 234t204 73q160 0 249 -114t89 -307q0 -143 -48 -266 t-127.5 -204.5t-181 -127t-208.5 -45.5q-148 0 -252 53l-41 -299q-3 -19 -2.5 -31.5t1.5 -22.5t11 -16t18 -10.5t32 -7t42.5 -4t59.5 -4.5l-7 -48h-522zM432 145q38 -41 99.5 -70.5t121.5 -29.5q124 0 215.5 78t136 205t44.5 284q0 164 -62.5 245t-165.5 81 q-48 0 -101.5 -35t-106 -102.5t-94.5 -182.5t-60 -258z" />
<glyph unicode="&#xff;" horiz-adv-x="1243" d="M188 -193q0 62 32.5 94.5t80.5 32.5q72 0 72 -53q0 -21 -23.5 -57t-23.5 -66q0 -123 166 -123q85 0 159 38.5t125 103.5t85 145t48 168l47 301h-10q-84 -192 -203 -293.5t-247 -101.5q-115 0 -177.5 74.5t-39.5 232.5l83 574q2 16 2.5 26.5t0.5 20.5t-5 16t-8.5 11.5 t-15.5 9t-20.5 6t-30 4.5t-37 3t-47.5 3l6 47l321 20h25l-102 -735q-11 -86 23.5 -134t115.5 -48q83 0 167 75t146.5 203.5t83.5 274.5l49 344h168l-125 -893q-36 -257 -200.5 -409t-382.5 -152q-147 0 -227.5 70t-80.5 167zM541 1212q0 50 34 83.5t82 33.5q39 0 65 -25.5 t26 -64.5q0 -48 -35.5 -80.5t-83.5 -32.5q-39 0 -63.5 23.5t-24.5 62.5zM899 1212q0 50 34.5 83.5t82.5 33.5q39 0 62.5 -25t23.5 -65q0 -49 -33.5 -81t-81.5 -32q-38 0 -63 24t-25 62z" />
<glyph unicode="&#x152;" horiz-adv-x="1988" d="M195 616q0 176 66 333t176 267t257.5 174t306.5 64q94 0 170 -20h906l-37 -334h-49q-13 140 -61.5 202t-164.5 62h-379l-83 -598h204q104 0 163.5 44t88.5 161h49l-67 -484h-49q3 117 -44 161t-151 44h-205l-88 -622h363q125 0 204.5 58.5t133.5 205.5h49l-68 -334h-919 q-79 -20 -172 -20q-263 0 -431.5 178.5t-168.5 457.5zM379 586q0 -248 118.5 -390.5t307.5 -142.5q44 0 82.5 10.5t74 33.5t60.5 66t35 103l127 899q6 61 -7.5 105t-43 67t-64.5 33t-78 10q-118 0 -227 -52.5t-195.5 -150t-138 -251t-51.5 -340.5z" />
<glyph unicode="&#x153;" horiz-adv-x="1828" d="M145 436q0 165 73 304t204 221.5t291 82.5q129 0 224 -61t144 -166q87 109 214.5 168t267.5 59q132 0 211 -60.5t79 -168.5q0 -22 -3 -41.5t-18.5 -54.5t-42.5 -64.5t-81 -64.5t-128 -61t-190 -48t-260 -32q7 -168 97 -258.5t235 -90.5q150 0 273 76l16 -43 q-186 -153 -381 -153q-133 0 -227 59t-142 160q-77 -102 -190.5 -160.5t-247.5 -58.5q-193 0 -305.5 128.5t-112.5 327.5zM324 391q0 -167 64 -256.5t183 -89.5q170 0 275.5 153t105.5 435q0 166 -65.5 256t-184.5 90q-170 0 -274 -153t-104 -435zM1133 522 q112 10 201.5 29.5t146 42t98.5 52.5t62 54t31.5 53.5t13.5 44.5t2 33q0 71 -45.5 109.5t-120.5 38.5q-156 0 -266 -125t-123 -332z" />
<glyph unicode="&#x178;" horiz-adv-x="1325" d="M211 1384l8 50h524l-8 -50q-124 -13 -152 -36t-3 -88l237 -658h4l363 615q55 89 35.5 120.5t-142.5 46.5l8 50h426l-8 -50q-94 -16 -135 -37t-74 -79l-438 -736l-55 -387q-2 -15 -2 -25v-19.5t5.5 -15.5t9 -11t16 -8.5t21 -6t30 -4.5t37 -3t47.5 -3l-9 -49h-526l8 49 q124 8 153 21.5t36 74.5l51 359l-291 768q-21 53 -57 79t-119 33zM666 1622q0 51 33 84t83 33q38 0 63 -25t25 -65q0 -48 -34.5 -80.5t-81.5 -32.5q-40 0 -64 23t-24 63zM1022 1622q0 50 35.5 83.5t83.5 33.5q38 0 62 -25t24 -65q0 -48 -34 -80.5t-81 -32.5q-39 0 -64.5 24 t-25.5 62z" />
<glyph unicode="&#x2c6;" horiz-adv-x="903" d="M354 1126l279 332h47l184 -332h-45l-186 170l-232 -170h-47z" />
<glyph unicode="&#x2dc;" horiz-adv-x="1052" d="M356 1133q127 208 219 208q37 0 143 -36.5t142 -36.5q51 0 82.5 13.5t67.5 57.5l30 -22q-28 -43 -44 -65t-46 -57.5t-59.5 -52t-59.5 -16.5q-43 0 -146 37t-146 37q-49 0 -78.5 -18.5t-73.5 -71.5z" />
<glyph unicode="&#x2000;" horiz-adv-x="934" />
<glyph unicode="&#x2001;" horiz-adv-x="1868" />
<glyph unicode="&#x2002;" horiz-adv-x="934" />
<glyph unicode="&#x2003;" horiz-adv-x="1868" />
<glyph unicode="&#x2004;" horiz-adv-x="622" />
<glyph unicode="&#x2005;" horiz-adv-x="467" />
<glyph unicode="&#x2006;" horiz-adv-x="311" />
<glyph unicode="&#x2007;" horiz-adv-x="311" />
<glyph unicode="&#x2008;" horiz-adv-x="233" />
<glyph unicode="&#x2009;" horiz-adv-x="373" />
<glyph unicode="&#x200a;" horiz-adv-x="103" />
<glyph unicode="&#x2010;" horiz-adv-x="903" d="M195 510l10 76h659l-10 -76h-659z" />
<glyph unicode="&#x2011;" horiz-adv-x="903" d="M195 510l10 76h659l-10 -76h-659z" />
<glyph unicode="&#x2012;" horiz-adv-x="903" d="M195 510l10 76h659l-10 -76h-659z" />
<glyph unicode="&#x2013;" horiz-adv-x="1107" d="M195 510l10 76h864l-10 -76h-864z" />
<glyph unicode="&#x2014;" horiz-adv-x="1312" d="M195 510l10 76h1069l-10 -76h-1069z" />
<glyph unicode="&#x2018;" horiz-adv-x="602" d="M319 1071q0 138 82 234t211 149l15 -49q-88 -37 -142.5 -94t-54.5 -103q0 -37 51 -37q46 0 73.5 -31t27.5 -75q0 -59 -43.5 -98t-98.5 -39q-64 0 -92.5 41.5t-28.5 101.5z" />
<glyph unicode="&#x2019;" horiz-adv-x="602" d="M311 977q88 37 142.5 94t54.5 103q0 36 -51 36q-48 0 -76.5 31t-28.5 76q0 59 44.5 98t99.5 39q63 0 91.5 -41t28.5 -102q0 -138 -81 -234.5t-209 -148.5z" />
<glyph unicode="&#x201a;" horiz-adv-x="602" d="M139 -242q88 37 142.5 94t54.5 103q0 37 -51 37q-48 0 -75.5 30.5t-27.5 75.5q0 59 44 98.5t98 39.5q63 0 91.5 -41.5t28.5 -102.5q0 -138 -81 -234.5t-209 -148.5z" />
<glyph unicode="&#x201c;" horiz-adv-x="946" d="M319 1071q0 138 82 234t211 149l15 -49q-88 -37 -142.5 -94t-54.5 -103q0 -37 51 -37q46 0 73.5 -31t27.5 -75q0 -59 -43.5 -98t-98.5 -39q-64 0 -92.5 41.5t-28.5 101.5zM664 1071q0 138 82 234.5t210 148.5l15 -49q-88 -37 -142.5 -94t-54.5 -103q0 -37 51 -37 q46 0 73.5 -31t27.5 -75q0 -59 -43.5 -98t-98.5 -39q-63 0 -91.5 41t-28.5 102z" />
<glyph unicode="&#x201d;" horiz-adv-x="946" d="M311 977q88 37 142.5 94t54.5 103q0 36 -51 36q-48 0 -76.5 31t-28.5 76q0 59 44.5 98t99.5 39q63 0 91.5 -41t28.5 -102q0 -138 -81 -234.5t-209 -148.5zM655 977q88 37 142.5 94t54.5 103q0 36 -51 36q-48 0 -76.5 31t-28.5 76q0 59 44.5 98t99.5 39q64 0 92.5 -41.5 t28.5 -101.5q0 -138 -81.5 -234.5t-209.5 -148.5z" />
<glyph unicode="&#x201e;" horiz-adv-x="946" d="M139 -242q88 37 142.5 94t54.5 103q0 37 -51 37q-48 0 -75.5 30.5t-27.5 75.5q0 59 44 98.5t98 39.5q63 0 91.5 -41.5t28.5 -102.5q0 -138 -81 -234.5t-209 -148.5zM483 -242q88 37 142.5 94t54.5 103q0 37 -51 37q-48 0 -75.5 30.5t-27.5 75.5q0 59 44 98.5t98 39.5 q63 0 91.5 -41.5t28.5 -102.5q0 -138 -81 -234.5t-209 -148.5z" />
<glyph unicode="&#x2022;" horiz-adv-x="692" d="M262 666q10 76 69 128t134 52q68 0 112 -45t44 -113q0 -82 -61 -140.5t-144 -58.5q-75 0 -120 51.5t-34 125.5z" />
<glyph unicode="&#x2026;" horiz-adv-x="1300" d="M182 96q0 58 42 99t100 41q47 0 76.5 -31.5t29.5 -77.5q0 -57 -42 -97t-99 -40q-45 0 -76 31t-31 75zM543 96q0 58 42 99t99 41q47 0 77 -31.5t30 -77.5q0 -57 -42.5 -97t-99.5 -40q-45 0 -75.5 30.5t-30.5 75.5zM903 96q0 58 42 99t99 41q47 0 77 -31.5t30 -77.5 q0 -57 -42 -97t-99 -40q-46 0 -76.5 31t-30.5 75z" />
<glyph unicode="&#x202f;" horiz-adv-x="373" />
<glyph unicode="&#x2039;" horiz-adv-x="974" d="M274 528l5 43l630 379l-12 -86l-397 -313l307 -320l-10 -84z" />
<glyph unicode="&#x203a;" horiz-adv-x="972" d="M219 147l629 381l6 43l-522 379l-13 -86l310 -313l-400 -320z" />
<glyph unicode="&#x205f;" horiz-adv-x="467" />
<glyph unicode="&#x20ac;" horiz-adv-x="1398" d="M168 487l10 74h123v14q0 101 25 199h-117l10 74h129q82 227 276.5 366.5t430.5 139.5q223 0 391 -113l-21 -268h-47q-11 138 -92 222.5t-242 84.5q-170 0 -311 -116t-205 -316h400l-35 -74h-385q-22 -104 -25 -213h404l-35 -74h-365q15 -202 120 -318t265 -116 q312 0 426 307h50l-64 -266q-191 -114 -422 -114q-226 0 -377.5 140t-177.5 367h-139z" />
<glyph unicode="&#x2122;" horiz-adv-x="1587" d="M260 1266h25q27 71 57.5 102t87.5 31h74l-84 -611q-4 -30 -19 -37t-77 -10l-5 -24h265l2 24q-60 3 -72 10t-8 37l84 611h74q57 0 80.5 -31.5t29.5 -101.5h25l18 168h-530zM793 717l2 24q66 3 81.5 10t18.5 37l80 572q4 31 -9 37.5t-77 11.5l4 25h192l138 -598l297 598 h186l-4 -25q-62 -5 -76 -11.5t-18 -37.5l-80 -572q-4 -30 8.5 -37t71.5 -10l-2 -24h-263l3 24q62 3 76.5 10t17.5 37l80 555l-316 -632h-45l-143 628l-78 -551q-4 -30 10.5 -37t83.5 -10l-2 -24h-237z" />
<glyph unicode="&#xe000;" horiz-adv-x="1044" d="M0 0v1044h1044v-1044h-1044z" />
<glyph unicode="&#xfb03;" horiz-adv-x="1906" d="M-59 -356q0 37 25 63.5t65 26.5q31 0 73 -16.5t54 -16.5q26 0 39.5 45t29.5 168l146 1034h-176l8 60l178 16l10 72q11 75 47.5 144t96.5 127t152.5 93t203.5 35q106 0 185 -33t120 -84q134 117 342 117q149 0 244.5 -63.5t95.5 -147.5q0 -53 -35 -87t-90 -34 q-43 0 -67.5 18.5t-24.5 45.5q0 24 20.5 50t20.5 48q0 42 -38 77.5t-120 35.5q-71 0 -126.5 -20t-90.5 -51t-60 -77.5t-38 -91t-21 -100.5l-10 -74h496l131 20h24l-125 -888q-6 -33 9.5 -49.5t46.5 -16.5q51 0 127 45l4 -41q-172 -114 -273 -114q-110 0 -92 126l107 758 q2 18 2 29t-2 21t-10.5 15t-19 9.5t-31 6t-43.5 2.5t-60 1h-301l-125 -887q-31 -226 -144.5 -358.5t-240.5 -132.5q-92 0 -92 74q0 37 25 63.5t65 26.5q30 0 72 -16.5t55 -16.5q26 0 39.5 45t29.5 168l146 1034h-176l8 60l178 16l10 72q15 103 80 198q-34 66 -90.5 105 t-130.5 39q-71 0 -126.5 -20t-90.5 -51t-60 -77.5t-38 -91t-21 -100.5l-10 -74h244l-11 -76h-243l-125 -887q-31 -226 -144.5 -358.5t-240.5 -132.5q-92 0 -92 74z" />
<glyph unicode="&#xfb04;" horiz-adv-x="1906" d="M-59 -356q0 37 25 63.5t65 26.5q31 0 73 -16.5t54 -16.5q26 0 39.5 45t29.5 168l146 1034h-176l8 60l178 16l10 72q11 75 47.5 144t96.5 127t152.5 93t203.5 35q106 0 185 -33t120 -84q134 117 342 117q146 0 240 -61l110 61h25l-189 -1339q-6 -33 9.5 -49.5t46.5 -16.5 q51 0 127 45l4 -41q-172 -114 -273 -114q-110 0 -92 126l176 1246q-60 86 -178 86q-71 0 -126.5 -20t-90.5 -51t-60 -77.5t-38 -91t-21 -100.5l-10 -74h244l-10 -76h-244l-125 -887q-31 -226 -144.5 -358.5t-240.5 -132.5q-92 0 -92 74q0 37 25 63.5t65 26.5q30 0 72 -16.5 t55 -16.5q26 0 39.5 45t29.5 168l146 1034h-176l8 60l178 16l10 72q15 103 80 198q-34 66 -90.5 105t-130.5 39q-71 0 -126.5 -20t-90.5 -51t-60 -77.5t-38 -91t-21 -100.5l-10 -74h244l-11 -76h-243l-125 -887q-31 -226 -144.5 -358.5t-240.5 -132.5q-92 0 -92 74z" />
</font>
</defs>
</svg>
